<svg width="228" height="183" viewBox="0 0 228 183" fill="none" xmlns="http://www.w3.org/2000/svg"><g clip-path="url(#clip0_224_280)"><mask id="mask0_224_280" style="mask-type:alpha" maskUnits="userSpaceOnUse" x="0" y="0" width="228" height="183"><path d="M0 68.742c0 26.524 14.432 49.676 35.87 62.03l-.7.108s35.514 18.396 62.784 41.866l-.224-.658a53.357 53.357 0 0031.724 10.401c20.745 0 38.727-11.787 47.651-29.024 17.015-25.596 36.875-43.547 36.875-43.547l-.059-.113c8.37-6.547 13.757-16.734 13.757-28.186 0-19.755-12.674-35.77-32.424-35.77-3.986 0-7.815.663-11.396 1.867-25.752 3.61-54.647-19.294-60.356-24.77C110.464 9.151 91.999.541 71.522.541 32.021.54 0 35.57 0 68.74z" fill="#fff"/></mask><g mask="url(#mask0_224_280)"><path opacity=".15" fill-rule="evenodd" clip-rule="evenodd" d="M0 68.742c0 26.524 14.432 49.676 35.87 62.03l-.7.108s35.514 18.396 62.784 41.866l-.224-.658a53.357 53.357 0 0031.724 10.401c20.745 0 38.727-11.787 47.651-29.024 17.015-25.596 36.875-43.547 36.875-43.547l-.059-.113c8.37-6.547 13.757-16.734 13.757-28.186 0-19.755-12.674-35.77-32.424-35.77-3.986 0-7.815.663-11.396 1.867-25.752 3.61-54.647-19.294-60.356-24.77C110.464 9.151 91.999.541 71.522.541 32.021.54 0 35.57 0 68.74z" fill="url(#paint0_linear_224_280)"/></g><path fill-rule="evenodd" clip-rule="evenodd" d="M112.514 110.557s-8.836 1.126-6.777-2.354c3.171-5.361 3.375-14.463 3.375-14.463l-9.686-10.017s-17.09-18.057-17.383-5.944c-.435 18.051-1.174 18.788-9.822 27.679 0 0-.22 34.758 17.892 38.054 18.111 3.296 22.401-32.955 22.401-32.955z" fill="#ECB855"/><path fill-rule="evenodd" clip-rule="evenodd" d="M123.121 56.652c6.819 16.661 4.346 39.265-9.033 41.064-16.272 2.188-32.976-10.664-35.567-33.463-2.59-22.8 34.855-31.413 44.6-7.6z" fill="#ECB855"/><path fill-rule="evenodd" clip-rule="evenodd" d="M112.987 65.6c-.121 7.064 1.061 9.165 2.026 11.436.399.936 1.429 1.402 2.284.838 1.49-.981 3.237-2.804 2.362-5.683-1.429-4.708-6.672-6.59-6.672-6.59z" fill="#ECB855"/><mask id="mask1_224_280" style="mask-type:alpha" maskUnits="userSpaceOnUse" x="0" y="-3" width="231" height="186"><path d="M71.417-2.46C31.975-2.46 0 29.51 0 68.948c0 26.477 14.41 49.586 35.817 61.919l-.698.108s35.462 18.362 62.692 41.79l-.224-.657a53.294 53.294 0 0031.679 10.382c20.714 0 38.67-11.766 47.581-28.971 16.991-25.55 40.154-43.468 40.154-43.468l-.059-.114c8.357-6.535 13.736-16.703 13.736-28.135 0-19.719-15.987-35.704-35.708-35.704-3.981 0-7.804.661-11.379 1.863-25.715 3.603-54.568-22.591-60.269-28.057C110.304 6.134 91.865-2.46 71.417-2.46z" fill="#fff"/></mask><g mask="url(#mask1_224_280)"><path fill-rule="evenodd" clip-rule="evenodd" d="M150.133 192.259s-4.107-64.255-19.068-73.12c-14.96-8.865-25.456-8.5-25.456-8.5s6.399 23.677-13.463 22.274c-23.671-1.672-19.563-27.564-19.563-27.564s-23.352 10.995-31.77 10.512c-8.416-.482-9.118 45.806-9.118 45.806l60.45 49.094 57.988-5.61v-12.892z" fill="#4E97EE"/></g><mask id="mask2_224_280" style="mask-type:alpha" maskUnits="userSpaceOnUse" x="33" y="106" width="116" height="77"><path d="M39.97 116.493c-3.142-.177-5.215 6.055-6.578 13.951a69.37 69.37 0 001.561.913l-.7.107s35.614 18.19 62.963 41.397l-.225-.65c8.91 6.46 19.907 10.283 31.815 10.283a54.28 54.28 0 0019.731-3.685c-2.117-19.169-7.292-52.855-17.924-59.069-15.025-8.782-25.566-8.42-25.566-8.42s6.426 23.454-13.522 22.064c-23.773-1.656-19.647-27.305-19.647-27.305s-23.453 10.892-31.907 10.414z" fill="#fff"/></mask><g mask="url(#mask2_224_280)"><path fill-rule="evenodd" clip-rule="evenodd" d="M31.342 128.405c19.725-1.389 47.198.695 47.198.695s6.34 8.337 16.203 6.253c9.861-2.085 12.679-6.948 12.679-6.948s14.794 2.779 19.725 1.39c4.932-1.39 11.976 0 11.976 0l4.227 12.505s-10.567 2.084-21.838 1.39c-11.271-.695-16.203 3.473-33.814 2.084-17.611-1.39-40.154 1.389-40.154 1.389l-16.202-18.758z" fill="#7CB2F2"/></g><mask id="mask3_224_280" style="mask-type:alpha" maskUnits="userSpaceOnUse" x="33" y="106" width="116" height="77"><path d="M39.97 116.493c-3.142-.177-5.215 6.055-6.578 13.951a69.37 69.37 0 001.561.913l-.7.107s35.614 18.19 62.963 41.397l-.225-.65c8.91 6.46 19.907 10.283 31.815 10.283a54.28 54.28 0 0019.731-3.685c-2.117-19.169-7.292-52.855-17.924-59.069-15.025-8.782-25.566-8.42-25.566-8.42s6.426 23.454-13.522 22.064c-23.773-1.656-19.647-27.305-19.647-27.305s-23.453 10.892-31.907 10.414z" fill="#fff"/></mask><g mask="url(#mask3_224_280)"><path fill-rule="evenodd" clip-rule="evenodd" d="M44.726 112.426c7.045 1.389 23.951 1.389 23.951 1.389v-10.42l-23.95 9.031z" fill="#7CB2F2"/></g><mask id="mask4_224_280" style="mask-type:alpha" maskUnits="userSpaceOnUse" x="33" y="106" width="116" height="77"><path d="M39.97 116.493c-3.142-.177-5.215 6.055-6.578 13.951a69.37 69.37 0 001.561.913l-.7.107s35.614 18.19 62.963 41.397l-.225-.65c8.91 6.46 19.907 10.283 31.815 10.283a54.28 54.28 0 0019.731-3.685c-2.117-19.169-7.292-52.855-17.924-59.069-15.025-8.782-25.566-8.42-25.566-8.42s6.426 23.454-13.522 22.064c-23.773-1.656-19.647-27.305-19.647-27.305s-23.453 10.892-31.907 10.414z" fill="#fff"/></mask><g mask="url(#mask4_224_280)"><path fill-rule="evenodd" clip-rule="evenodd" d="M108.127 117.753c11.976.694 21.838-1.158 21.838-1.158l-22.073-7.874.235 9.032z" fill="#7CB2F2"/></g><mask id="mask5_224_280" style="mask-type:alpha" maskUnits="userSpaceOnUse" x="33" y="106" width="116" height="77"><path d="M39.97 116.493c-3.142-.177-5.215 6.055-6.578 13.951a69.37 69.37 0 001.561.913l-.7.107s35.614 18.19 62.963 41.397l-.225-.65c8.91 6.46 19.907 10.283 31.815 10.283a54.28 54.28 0 0019.731-3.685c-2.117-19.169-7.292-52.855-17.924-59.069-15.025-8.782-25.566-8.42-25.566-8.42s6.426 23.454-13.522 22.064c-23.773-1.656-19.647-27.305-19.647-27.305s-23.453 10.892-31.907 10.414z" fill="#fff"/></mask><g mask="url(#mask5_224_280)"><path fill-rule="evenodd" clip-rule="evenodd" d="M70.086 156.889c23.952 3.474 36.632 2.779 49.312 1.389 12.68-1.389 26.769-3.473 26.769-3.473l2.114 15.284s-23.247 3.474-38.745 3.474c-15.498 0-23.247 2.084-23.247 2.084l-16.203-18.758z" fill="#7CB2F2"/></g><mask id="mask6_224_280" style="mask-type:alpha" maskUnits="userSpaceOnUse" x="33" y="106" width="116" height="77"><path d="M39.97 116.493c-3.142-.177-5.215 6.055-6.578 13.951a69.37 69.37 0 001.561.913l-.7.107s35.614 18.19 62.963 41.397l-.225-.65c8.91 6.46 19.907 10.283 31.815 10.283a54.28 54.28 0 0019.731-3.685c-2.117-19.169-7.292-52.855-17.924-59.069-15.025-8.782-25.566-8.42-25.566-8.42s6.426 23.454-13.522 22.064c-23.773-1.656-19.647-27.305-19.647-27.305s-23.453 10.892-31.907 10.414z" fill="#fff"/></mask><g mask="url(#mask6_224_280)"><path fill-rule="evenodd" clip-rule="evenodd" d="M117.52 190.7c-4.227-23.853 16.917-60.669-9.393-72.02-2.516-1.087-1.524-4.297-2.715-5.014-9.482-5.71 21.021-.226 30.012 9.008 4.924 5.056 11.096 42.205 11.096 42.205l-5.812 22.405-23.188 3.416z" fill="#4E97EE" fill-opacity=".5"/></g><mask id="mask7_224_280" style="mask-type:alpha" maskUnits="userSpaceOnUse" x="33" y="106" width="116" height="77"><path d="M39.97 116.493c-3.142-.177-5.215 6.055-6.578 13.951a69.37 69.37 0 001.561.913l-.7.107s35.614 18.19 62.963 41.397l-.225-.65c8.91 6.46 19.907 10.283 31.815 10.283a54.28 54.28 0 0019.731-3.685c-2.117-19.169-7.292-52.855-17.924-59.069-15.025-8.782-25.566-8.42-25.566-8.42s6.426 23.454-13.522 22.064c-23.773-1.656-19.647-27.305-19.647-27.305s-23.453 10.892-31.907 10.414z" fill="#fff"/></mask><g mask="url(#mask7_224_280)"><path fill-rule="evenodd" clip-rule="evenodd" d="M133.017 192.321c5.636-30.568 3.992-60.673-.939-72.02-2.838-6.532 6.341-.232 12.211 22.925a4933.78 4933.78 0 015.166 20.611l-7.28 25.937-9.158 2.547z" fill="#4E97EE" fill-opacity=".5"/></g><path fill-rule="evenodd" clip-rule="evenodd" d="M188.878 114.846c4.753-4.135 13.152-11.733 12.929-14.173-.224-2.44-12.361 8.648-15.278 9.969-2.917 1.32 2.349 4.204 2.349 4.204z" fill="#ECB855"/><path fill-rule="evenodd" clip-rule="evenodd" d="M187.908 112.62c4.01-4.263 11.055-11.272 10.049-13.316-.8-1.627-7.315 6.854-15.576 10.672-4.236 1.957 5.527 2.644 5.527 2.644z" fill="#ECB855"/><path fill-rule="evenodd" clip-rule="evenodd" d="M155.042 143.602c4.429-7.088 10.88-24.534 13.972-28.209 6.443-7.656 7.435-8.297 14.035-14.728 6.599-6.431 4.503 1.024 1.641 3.69-2.861 2.666-.315 6.682-.315 6.682s.706.785 3.73-.196c6.522-2.116 9.776-5.673 11.794-6.693a4.179 4.179 0 012.069-.444l-.679 2.254c.705-.215.1 1.443-.282 1.989-1.407 2.013-2.566 3.39-5.594 5.297-7.712 4.855-13.313 3.355-22.227 13.683-2.04 2.363-6.351 21.48-7.157 29.72l-10.987-13.045z" fill="#ECB855"/><path fill-rule="evenodd" clip-rule="evenodd" d="M167.12 163.884l-16.897-4.4c3.668-11.035 14.695-40.382 20.675-44.029" fill="#F1CA80"/><path fill-rule="evenodd" clip-rule="evenodd" d="M168 116c4.515-5.152 7.675-8.645 14.488-15.346 6.813-6.701 4.649 1.067 1.694 3.845-2.953 2.777 1.333 7.222 1.333 7.222S181.047 110.439 168 116z" fill="#ECB855"/><mask id="mask8_224_280" style="mask-type:alpha" maskUnits="userSpaceOnUse" x="0" y="-3" width="231" height="186"><path d="M71.417-2.46C31.975-2.46 0 29.51 0 68.948c0 26.477 14.41 49.586 35.817 61.919l-.698.108s35.462 18.362 62.692 41.79l-.224-.657a53.294 53.294 0 0031.679 10.382c20.714 0 38.67-11.766 47.581-28.971 16.991-25.55 40.154-43.468 40.154-43.468l-.059-.114c8.357-6.535 13.736-16.703 13.736-28.135 0-19.719-15.987-35.704-35.708-35.704-3.981 0-7.804.661-11.379 1.863-25.715 3.603-54.568-22.591-60.269-28.057C110.304 6.134 91.865-2.46 71.417-2.46z" fill="#fff"/></mask><g mask="url(#mask8_224_280)"><path fill-rule="evenodd" clip-rule="evenodd" d="M154.468 144.178l1.849-7.142 17.119.202-1.984 9.234-16.984-2.294z" fill="#7CB2F2"/></g><mask id="mask9_224_280" style="mask-type:alpha" maskUnits="userSpaceOnUse" x="0" y="-3" width="231" height="186"><path d="M71.417-2.46C31.975-2.46 0 29.51 0 68.948c0 26.477 14.41 49.586 35.817 61.919l-.698.108s35.462 18.362 62.692 41.79l-.224-.657a53.294 53.294 0 0031.679 10.382c20.714 0 38.67-11.766 47.581-28.971 16.991-25.55 40.154-43.468 40.154-43.468l-.059-.114c8.357-6.535 13.736-16.703 13.736-28.135 0-19.719-15.987-35.704-35.708-35.704-3.981 0-7.804.661-11.379 1.863-25.715 3.603-54.568-22.591-60.269-28.057C110.304 6.134 91.865-2.46 71.417-2.46z" fill="#fff"/></mask><g mask="url(#mask9_224_280)"><path fill-rule="evenodd" clip-rule="evenodd" d="M164.735 182.372l8.504-40.27-20.591-1.245-14.503 47.744 26.59-6.229z" fill="#4E97EE"/></g><mask id="mask10_224_280" style="mask-type:alpha" maskUnits="userSpaceOnUse" x="140" y="141" width="33" height="41"><path d="M140.414 181.452c10.793-2.29 20.374-7.888 27.657-15.69l4.919-23.466-20.395-1.242-12.181 40.398z" fill="#fff"/></mask><g mask="url(#mask10_224_280)"><path fill-rule="evenodd" clip-rule="evenodd" d="M148.641 150.973c7.815 1.575 22.231 2.333 22.231 2.333l-1.563 14.172s-7.353-.058-12.563-1.108c-5.21-1.05-12.274-2.1-12.274-2.1l4.169-13.297z" fill="#7CB2F2"/></g><mask id="mask11_224_280" style="mask-type:alpha" maskUnits="userSpaceOnUse" x="140" y="141" width="33" height="41"><path d="M140.414 181.452c10.793-2.29 20.374-7.888 27.657-15.69l4.919-23.466-20.395-1.242-12.181 40.398z" fill="#fff"/></mask><g mask="url(#mask11_224_280)"><path fill-rule="evenodd" clip-rule="evenodd" d="M153.272 178.501c-1.157-.234-12.042-3.966-12.042-3.966l-4.168 11.897 16.21-7.931z" fill="#7CB2F2"/></g><mask id="mask12_224_280" style="mask-type:alpha" maskUnits="userSpaceOnUse" x="140" y="141" width="33" height="41"><path d="M140.414 181.452c10.793-2.29 20.374-7.888 27.657-15.69l4.919-23.466-7.16-.436-13.235-.806-12.181 40.398z" fill="#fff"/></mask><g mask="url(#mask12_224_280)"><path fill-rule="evenodd" clip-rule="evenodd" d="M165.314 142.108c.695 19.596-9.726 31.027-17.368 36.626-7.642 5.599 27.789-6.532 27.789-6.532l3.474-30.094h-13.895z" fill="#4E97EE" fill-opacity=".5"/></g><path fill-rule="evenodd" clip-rule="evenodd" d="M170.969 137s-3.142 1.097-3.962 6.447c-.251 1.64 6.559 1.851 6.559 1.234s1.434-7.613 1.434-7.613l-4.031-.068z" fill="#4E97EE" fill-opacity=".5"/><path fill-rule="evenodd" clip-rule="evenodd" d="M73.009 105s-1.887 15.875 7.31 24.168c9.196 8.293 21.693 5.687 24.523-1.659 2.829-7.345.235-17.119.235-17.119l3.537.949s4.244 11.906-2.122 20.672c-6.366 8.767-24.523 7.582-30.89-1.421C69.236 121.586 69 107.843 69 107.843L73.009 105z" fill="#4E97EE"/><path fill-rule="evenodd" clip-rule="evenodd" d="M89.128 71.402c1.51-9.88-6.086-19.783 13.195-19.06 26.12.978 34.924-2.243 34.599-11.515-.152-4.369-2.954-5.12-5.874-4.692-2.389.35-4.26-2.053-3.393-4.318 1.895-4.951 2.923-11.026-2.645-12.343-9.721-2.3-4.878 7.203-8.808 9.655-3.932 2.453 3.675-7.911-4.274-7.416-8.795.547-15.505 9.072-15.505 9.072s7.547-9.567 1.51-8.222c-7.907 1.762-22.082 3.213-21.736 22.697.346 19.485 12.93 26.142 12.93 26.142z" fill="#2E5078"/><path fill-rule="evenodd" clip-rule="evenodd" d="M85.073 65.223c-10.638-4.48-1.182 15.38-1.157 15.719.39 5.268-1.714 5.057-1.714 5.057s1.605-6.633-9.844-18.616C60.91 55.4 65.992 37.074 79.088 41.746c13.096 4.671 5.985 23.477 5.985 23.477z" fill="#2E5078"/><path opacity=".05" fill-rule="evenodd" clip-rule="evenodd" d="M109.852 69.81c0 3.828-3.085 6.93-6.89 6.93-3.805 0-6.889-3.102-6.889-6.93 0-3.827 3.084-6.929 6.889-6.929s6.89 3.102 6.89 6.93zm21.052-4.76c0 3.827-3.084 6.929-6.889 6.929s-6.89-3.102-6.89-6.93c0-3.827 3.085-6.93 6.89-6.93 3.805 0 6.889 3.103 6.889 6.93z" fill="#E5EBED"/><path clip-rule="evenodd" d="M109.715 69.81a6.931 6.931 0 01-6.933 6.93 6.932 6.932 0 01-6.934-6.93 6.931 6.931 0 016.934-6.929 6.931 6.931 0 016.933 6.93zm21.189-4.76a6.932 6.932 0 01-6.934 6.929 6.931 6.931 0 01-6.934-6.93 6.932 6.932 0 016.934-6.93 6.932 6.932 0 016.934 6.93z" stroke="#fff" stroke-width="2"/><path d="M109.255 67.544c.002.005 7.546-1.868 7.546-1.868" stroke="#2E5078" stroke-width="2"/><path d="M95.495 70.03l-1.854.339s-4.062-1.457-11.418-4.76c-4.614-2.072-2.237 8.12-2.237 8.12" stroke="#2E5078" stroke-width="2" stroke-linecap="round"/><path fill-rule="evenodd" clip-rule="evenodd" d="M194.742 90.162a6 6 0 01-5.59 6.25l-32.41 2.185a6 6 0 01-6.39-5.575l-.952-13.86a6 6 0 015.407-6.383l32.709-3.17a6 6 0 016.573 5.71l.653 14.843z" fill="#4477B3"/><path fill-rule="evenodd" clip-rule="evenodd" d="M174.979 86.39a8.999 8.999 0 01-8.368 9.589 9 9 0 118.368-9.59z" fill="#FFD840"/><mask id="mask13_224_280" style="mask-type:alpha" maskUnits="userSpaceOnUse" x="148" y="69" width="47" height="30"><path d="M148.511 73.404l1.765 25.574 44.277-2.973-1.19-26.93-44.852 4.329z" fill="#fff"/></mask><g mask="url(#mask13_224_280)"><path fill-rule="evenodd" clip-rule="evenodd" d="M182.706 88.203l-7.105 9.487 15.448-1.038-8.343-8.449z" fill="#7CB2F2"/></g><mask id="mask14_224_280" style="mask-type:alpha" maskUnits="userSpaceOnUse" x="148" y="69" width="47" height="30"><path d="M148.511 73.404l1.765 25.574 44.277-2.973-1.19-26.93-44.852 4.329z" fill="#fff"/></mask><g mask="url(#mask14_224_280)"><path fill-rule="evenodd" clip-rule="evenodd" d="M165.81 85.088l-10.455 13.96 22.731-1.525-12.276-12.435z" fill="#7CB2F2"/></g><path fill-rule="evenodd" clip-rule="evenodd" d="M14.262 70.362l.597 10.123a6 6 0 006.113 5.645l30.274-.622a6 6 0 005.853-6.526l-1.31-14.856a6 6 0 00-6.328-5.462l-24.266 1.424-5.466.32a6 6 0 00-5.643 6.275l.176 3.68z" fill="#F9662E"/><path fill-rule="evenodd" clip-rule="evenodd" d="M44.211 72.148c-.173-4.398-3.913-7.824-8.351-7.651-4.44.171-7.897 3.877-7.723 8.275.174 4.399 3.913 7.825 8.352 7.652 4.439-.172 7.896-3.877 7.722-8.276z" fill="#fff"/><path fill-rule="evenodd" clip-rule="evenodd" d="M40.592 72.288l-7.237-3.774.32 8.098 6.917-4.324z" fill="#F9662E"/><path fill-rule="evenodd" clip-rule="evenodd" d="M156.042 25.326a6 6 0 00-6.994 4.946l-1.975 12.213a6 6 0 004.843 6.86l13.547 2.477a6 6 0 006.988-4.86l2.152-12.2a6 6 0 00-4.837-6.946l-13.724-2.49z" fill="#36B2E5"/><path fill-rule="evenodd" clip-rule="evenodd" d="M154.744 41.329l-.994 3.72c-.071.262.214.477.449.341l5.045-2.905-4.5-1.156z" fill="#fff"/><path fill-rule="evenodd" clip-rule="evenodd" d="M168.274 39.389c-.556 3.482-4.319 5.785-8.404 5.144-4.086-.64-6.946-3.983-6.391-7.465.557-3.482 4.32-5.785 8.405-5.145 4.085.642 6.946 3.984 6.39 7.466z" fill="#fff"/><path d="M157.643 36.264l7.049 1.105m-7.534 1.927l7.05 1.106" stroke="#36B2E5" stroke-width="2" stroke-linecap="round"/></g><defs><linearGradient id="paint0_linear_224_280" x1="45.136" y1="124.728" x2="152.058" y2="17.781" gradientUnits="userSpaceOnUse"><stop stop-color="#CFEDF9"/><stop offset="1" stop-color="#F2F9FD"/></linearGradient><clipPath id="clip0_224_280"><path fill="#fff" d="M0 0h228v183H0z"/></clipPath></defs></svg>