<svg width="239" height="181" viewBox="0 0 239 181" fill="none" xmlns="http://www.w3.org/2000/svg"><g clip-path="url(#clip0_224_101)"><mask id="mask0_224_101" style="mask-type:alpha" maskUnits="userSpaceOnUse" x="0" y="4" width="239" height="177"><path d="M115.91 8.52l.202-.31a246.22 246.22 0 01-3.098 1.574c-.735.345-1.463.701-2.18 1.076-26.295 12.827-55.028 21.52-55.028 21.52l.732.195C24.282 41.128.51 70.488.51 105.398c0 41.611 33.772 75.344 75.432 75.344 18.163 0 34.816-6.422 47.833-17.103l-.011.04c24.585-17.404 61.612-16.389 72.833-15.619a37.7 37.7 0 002.951.243c.253.026.392.042.392.042l.011-.031c.403.012.803.031 1.208.031 20.83 0 37.716-16.867 37.716-37.673 0-13.12-6.718-24.67-16.903-31.414-21.427-15.783-33.398-42.196-33.398-42.196l-.156.226c-8.964-19.39-28.59-32.851-51.376-32.851a56.424 56.424 0 00-21.132 4.082z" fill="#fff"/></mask><g mask="url(#mask0_224_101)"><path opacity=".15" fill-rule="evenodd" clip-rule="evenodd" d="M115.91 8.52l.202-.31a246.22 246.22 0 01-3.098 1.574c-.735.345-1.463.701-2.18 1.076-26.295 12.827-55.028 21.52-55.028 21.52l.732.195C24.282 41.128.51 70.488.51 105.398c0 41.611 33.772 75.344 75.432 75.344 18.163 0 34.816-6.422 47.833-17.103l-.011.04c24.585-17.404 61.612-16.389 72.833-15.619a37.7 37.7 0 002.951.243c.253.026.392.042.392.042l.011-.031c.403.012.803.031 1.208.031 20.83 0 37.716-16.867 37.716-37.673 0-13.12-6.718-24.67-16.903-31.414-21.427-15.783-33.398-42.196-33.398-42.196l-.156.226c-8.964-19.39-28.59-32.851-51.376-32.851a56.424 56.424 0 00-21.132 4.082z" fill="url(#paint0_linear_224_101)"/></g><path fill-rule="evenodd" clip-rule="evenodd" d="M21.057 113.557c.252-.36 1.4-.649 2.568-.649H95.57c1.167 0 2.315.289 2.566.649l13.158 18.009c.39.558-.436 3.102-1.851 3.102H9.75c-1.414 0-2.24-2.544-1.85-3.102l13.157-18.009z" fill="#B4C3CA"/><path fill-rule="evenodd" clip-rule="evenodd" d="M21.057 113.557c.252-.36 1.4-.649 2.568-.649H95.57c1.167 0 2.315.289 2.566.649l13.158 18.009c.39.558-.436 1.016-1.851 1.016H9.75c-1.414 0-2.24-.458-1.85-1.016l13.157-18.009z" fill="#fff"/><path fill-rule="evenodd" clip-rule="evenodd" d="M47.642 130.735l1.452-3.701a.345.345 0 01.32-.219h20.38c.142 0 .27.088.32.22l1.439 3.701a.207.207 0 01-.193.281H47.833a.206.206 0 01-.191-.282zm-29.944-4.875h83.797c.33 0 .545-.355.382-.63l-6.082-10.272a1.412 1.412 0 00-1.223-.687h-69.95c-.508 0-.97.26-1.223.687l-6.083 10.272c-.163.275.053.63.382.63z" fill="#EDECEB"/><path fill-rule="evenodd" clip-rule="evenodd" d="M24.621 114.307c-.497 0-.943.25-1.19.67l-6.084 10.27a.367.367 0 00.002.374.399.399 0 00.35.202h83.796a.397.397 0 00.349-.202.367.367 0 00.002-.373l-6.083-10.271a1.366 1.366 0 00-1.191-.67h-69.95zm-7.335 11.35a.437.437 0 01-.001-.446l6.082-10.271c.262-.441.73-.705 1.254-.705h69.95c.525 0 .994.264 1.255.705l6.083 10.271a.437.437 0 01-.001.446.473.473 0 01-.413.239H17.698a.47.47 0 01-.412-.239z" fill="#EDECEB"/><path fill-rule="evenodd" clip-rule="evenodd" d="M91.335 116.208h3.422a.377.377 0 00.323-.564l-.365-.643a.372.372 0 00-.324-.189h-3.378a.376.376 0 00-.333.546l.322.643a.372.372 0 00.333.207zm-1.64 1.992h6.102c.287 0 .467-.3.324-.541l-.41-.691a.375.375 0 00-.324-.181h-6.024c-.273 0-.455.274-.339.514l.332.69a.374.374 0 00.339.209zm-.169 2.136h7.699c.29 0 .472-.301.327-.542l-.462-.77a.38.38 0 00-.327-.182h-7.595c-.273 0-.456.269-.345.509l.359.77c.06.131.195.215.344.215zm3.834 2.21h5.23c.293 0 .476-.301.33-.542l-.517-.856a.382.382 0 00-.33-.182h-5.15c-.28 0-.464.28-.341.52l.437.857a.383.383 0 00.342.203zm2.564 2.624h4.022c.293 0 .475-.301.33-.542l-.756-1.252a.384.384 0 00-.33-.182h-3.93c-.283 0-.467.284-.339.525l.665 1.252a.382.382 0 00.34.199zm-5.69 0h4.05c.281 0 .465-.282.34-.523l-.65-1.251a.383.383 0 00-.341-.202h-3.959c-.272 0-.456.265-.35.504l.561 1.251c.06.134.197.221.35.221zm-5.718 0h4.073c.27 0 .455-.262.351-.501l-.545-1.251a.38.38 0 00-.35-.224h-3.983c-.26 0-.445.245-.36.48l.455 1.252a.379.379 0 00.36.244zm-42.557 0h5.526a.375.375 0 00.375-.303l.218-1.252c.038-.22-.14-.421-.375-.421h-5.41a.377.377 0 00-.369.273l-.334 1.252c-.06.228.121.451.369.451zm-5.689 0h4.098c.173 0 .324-.11.368-.269l.349-1.253c.064-.229-.118-.454-.368-.454H36.71a.38.38 0 00-.36.247l-.44 1.252c-.082.234.1.477.36.477zm-11.366 0h4.055a.38.38 0 00.35-.221l.56-1.251c.107-.239-.077-.504-.35-.504h-3.964a.381.381 0 00-.34.202l-.652 1.251c-.125.241.06.523.341.523zm5.678.006h4.073a.38.38 0 00.36-.244l.103-.285c.085-.235-.098-.48-.36-.48h-4.052a.382.382 0 00-.35.224l-.125.285c-.104.238.08.5.351.5zm-11.348 0h4.022a.383.383 0 00.34-.199l.15-.285c.129-.24-.055-.525-.338-.525h-4.002a.384.384 0 00-.33.182l-.172.285c-.145.241.038.542.33.542zm58.17-.006h5.523c.26 0 .444-.243.361-.477l-.44-1.252a.38.38 0 00-.36-.247h-5.406c-.247 0-.428.22-.37.448l.323 1.252a.378.378 0 00.37.276zm-28.359 0h26.792c.244 0 .425-.217.37-.444l-.308-1.253a.377.377 0 00-.37-.279H49.247a.374.374 0 00-.376.307l-.203 1.252c-.035.219.143.417.376.417zm37.318-8.962h3.449a.377.377 0 00.334-.544l-.315-.643a.373.373 0 00-.334-.209h-3.405a.376.376 0 00-.343.524l.27.643a.374.374 0 00.344.229zm-4.976 0h3.473a.376.376 0 00.344-.521l-.264-.643a.373.373 0 00-.344-.232h-3.429a.375.375 0 00-.352.499l.22.643a.372.372 0 00.352.254zm-4.904 0h3.49a.377.377 0 00.355-.497l-.214-.642a.373.373 0 00-.354-.257h-3.447a.376.376 0 00-.36.473l.17.643c.043.165.191.28.36.28zm-4.97 0h3.506a.376.376 0 00.361-.47l-.162-.643a.374.374 0 00-.362-.283h-3.462a.376.376 0 00-.366.445l.118.643a.374.374 0 00.367.308zm-4.949 0h3.517a.376.376 0 00.367-.442l-.112-.643a.374.374 0 00-.367-.311h-3.473a.375.375 0 00-.371.416l.068.643c.02.191.18.337.37.337zm-4.962 0h3.523c.22 0 .392-.192.371-.413l-.06-.642a.374.374 0 00-.371-.341h-3.48a.375.375 0 00-.372.386l.016.643a.376.376 0 00.373.367zm-4.964 0h3.524a.375.375 0 00.373-.383l-.01-.642a.374.374 0 00-.372-.371h-3.48a.374.374 0 00-.373.356l-.034.643a.376.376 0 00.372.397zm-4.893 0h3.52c.197 0 .36-.155.373-.353l.04-.643a.375.375 0 00-.372-.4H51.83a.374.374 0 00-.37.327l-.084.643a.376.376 0 00.369.426zm-4.959 0H50.3a.375.375 0 00.369-.323l.091-.643a.375.375 0 00-.369-.43h-3.468a.373.373 0 00-.364.298l-.136.643a.375.375 0 00.364.455zm-5.034 0h3.5a.373.373 0 00.362-.294l.144-.643a.376.376 0 00-.364-.459H41.94c-.165 0-.31.11-.358.27l-.187.643a.376.376 0 00.358.483zm-4.887 0h3.483a.374.374 0 00.356-.267l.194-.643a.376.376 0 00-.357-.486h-3.438a.371.371 0 00-.35.245l-.237.642c-.09.246.09.509.35.509zm47.709 1.992h3.586a.362.362 0 00.34-.511l-.324-.69a.375.375 0 00-.34-.212h-3.537c-.262 0-.443.254-.349.491l.275.691a.373.373 0 00.349.231zm-5.122 0h3.607c.261 0 .442-.252.35-.488l-.267-.69a.373.373 0 00-.35-.235h-3.558c-.25 0-.43.235-.357.467l.218.69a.372.372 0 00.357.256zm-5.048 0h3.624c.25 0 .429-.232.358-.464l-.21-.69a.372.372 0 00-.359-.259h-3.574a.365.365 0 00-.365.441l.162.691a.37.37 0 00.364.281zm-5.116 0h3.636a.365.365 0 00.366-.437l-.154-.691a.371.371 0 00-.365-.285h-3.588a.365.365 0 00-.37.414l.105.69a.37.37 0 00.37.309zm-5.095 0h3.645a.365.365 0 00.37-.41l-.096-.69a.37.37 0 00-.37-.313h-3.596a.367.367 0 00-.373.385l.047.691c.013.19.176.337.373.337zm-5.107 0h3.648a.367.367 0 00.374-.381l-.04-.691a.369.369 0 00-.372-.341h-3.6a.368.368 0 00-.374.356l-.01.691a.368.368 0 00.374.366zm-5.11 0h3.647a.367.367 0 00.374-.352l.018-.691a.367.367 0 00-.373-.37h-3.6a.369.369 0 00-.371.327l-.067.691a.366.366 0 00.372.395zm-5.037 0h3.642c.191 0 .352-.14.371-.324l.074-.69a.366.366 0 00-.371-.399h-3.593a.37.37 0 00-.368.3l-.123.69a.365.365 0 00.368.423zm-5.105 0h3.631a.37.37 0 00.368-.296l.131-.69a.365.365 0 00-.367-.427h-3.582c-.17 0-.32.112-.362.273l-.18.69c-.06.228.118.45.361.45zm-5.183 0h3.616a.37.37 0 00.361-.268l.19-.691a.364.364 0 00-.361-.454h-3.568a.372.372 0 00-.354.247l-.238.69a.363.363 0 00.354.476zm-5.317-.636c-.15.35.048.636.44.636h2.998c.392 0 .816-.293.944-.65l.04-.112c.127-.358-.089-.651-.48-.651h-2.899c-.391 0-.834.286-.983.637l-.06.14zm-4.854.636h3.573c.15 0 .285-.086.344-.22l.304-.69c.105-.239-.076-.503-.344-.503h-3.525a.375.375 0 00-.335.201l-.353.69c-.122.241.058.522.336.522zm55.733 2.136h3.754c.272 0 .455-.267.347-.506l-.35-.771a.378.378 0 00-.346-.217h-3.7c-.261 0-.444.25-.354.486l.294.77a.377.377 0 00.355.238zm-5.32 0h3.775c.26 0 .443-.247.355-.482l-.284-.771a.378.378 0 00-.357-.241h-3.719c-.25 0-.431.23-.363.461l.23.77a.375.375 0 00.363.263zm-5.245 0h3.792c.249 0 .43-.228.363-.458l-.221-.77a.375.375 0 00-.364-.266h-3.736c-.239 0-.418.21-.369.434l.166.772c.036.167.19.288.37.288zm-5.314 0h3.803c.237 0 .416-.208.37-.431l-.157-.771a.373.373 0 00-.37-.292h-3.748a.368.368 0 00-.374.407l.101.77a.373.373 0 00.375.317zm-5.292 0h3.81c.225 0 .4-.189.374-.403l-.092-.771a.372.372 0 00-.375-.32h-3.755a.369.369 0 00-.377.378l.037.771a.37.37 0 00.378.345zm-5.306 0h3.813a.37.37 0 00.377-.374l-.029-.771a.37.37 0 00-.376-.349h-3.758a.37.37 0 00-.377.349l-.027.771a.37.37 0 00.377.374zm-5.308 0h3.81a.37.37 0 00.377-.346l.036-.77a.369.369 0 00-.377-.378H52.52a.372.372 0 00-.375.321l-.091.77a.368.368 0 00.375.403zm-5.233 0h3.803c.19 0 .351-.136.375-.317l.1-.771a.367.367 0 00-.375-.406H47.35a.374.374 0 00-.37.293l-.156.771a.367.367 0 00.371.43zm-5.303 0h3.792c.18 0 .334-.121.37-.289l.164-.771a.367.367 0 00-.37-.434h-3.736c-.17 0-.32.109-.364.267l-.22.77c-.065.23.116.457.364.457zm-5.384 0h3.774a.375.375 0 00.363-.263l.23-.77c.069-.231-.112-.461-.363-.461h-3.719a.378.378 0 00-.356.241l-.285.771c-.087.235.095.482.355.482zm-5.226 0h3.754c.158 0 .3-.095.355-.238l.293-.771c.09-.236-.092-.485-.354-.485h-3.7a.377.377 0 00-.346.218l-.349.77c-.108.239.075.506.347.506zm56.566 2.21h3.902c.278 0 .463-.277.343-.517l-.427-.856a.382.382 0 00-.343-.207h-3.84c-.27 0-.453.26-.352.498l.365.857a.38.38 0 00.352.225zm-5.512 0h3.924c.268 0 .452-.257.354-.494l-.355-.857a.382.382 0 00-.354-.229h-3.862c-.258 0-.441.24-.361.474l.293.856a.38.38 0 00.361.25zm-5.433 0h3.942c.257 0 .44-.237.362-.47l-.284-.857a.379.379 0 00-.362-.253h-3.88c-.247 0-.428.22-.37.448l.223.857a.377.377 0 00.369.275zm-5.507 0h3.956c.245 0 .426-.217.37-.444l-.212-.857a.377.377 0 00-.37-.279h-3.894c-.234 0-.413.201-.375.421l.15.857c.03.174.19.302.375.302zm-5.484 0h3.966c.233 0 .411-.198.376-.417l-.14-.857a.375.375 0 00-.376-.306h-3.904a.37.37 0 00-.378.393l.078.857c.016.186.181.33.378.33zm-5.497 0h3.97a.37.37 0 00.38-.389l-.068-.856a.373.373 0 00-.379-.335H60.41a.371.371 0 00-.38.364l.006.857a.37.37 0 00.38.359zm-5.501 0h3.971c.21 0 .38-.16.38-.36l.005-.856a.37.37 0 00-.38-.364h-3.91a.373.373 0 00-.378.335l-.066.857a.37.37 0 00.378.388zm-5.422 0h3.967a.373.373 0 00.378-.331l.076-.857c.019-.21-.156-.392-.38-.392H49.63a.375.375 0 00-.376.308l-.137.856c-.035.219.143.416.375.416zm-5.494 0h3.956a.375.375 0 00.375-.303l.148-.857c.038-.22-.14-.42-.375-.42h-3.894a.377.377 0 00-.37.28l-.21.856c-.056.227.125.444.37.444zm-5.58 0h3.942a.377.377 0 00.37-.275l.22-.857c.06-.228-.122-.448-.369-.448h-3.88a.38.38 0 00-.363.253l-.282.857c-.077.233.105.47.362.47zm-5.415 0h3.923a.378.378 0 00.362-.25l.293-.857c.08-.233-.104-.473-.362-.473h-3.862a.38.38 0 00-.354.229l-.354.857c-.098.237.086.494.354.494zm-12.41 0h10.768a.38.38 0 00.352-.225l.365-.857c.101-.238-.083-.498-.352-.498H21.11a.383.383 0 00-.33.182l-.517.856c-.145.241.037.542.33.542zm5.347-2.21h3.73a.377.377 0 00.345-.215l.359-.77c.111-.24-.072-.509-.345-.509h-3.675a.381.381 0 00-.336.196l-.413.771c-.13.24.053.527.335.527zm5.973-4.128h3.461a.373.373 0 00.348-.242l.245-.643a.376.376 0 00-.348-.511h-3.417a.371.371 0 00-.34.221l-.289.643a.376.376 0 00.34.532z" fill="#9DC5F5"/><path fill-rule="evenodd" clip-rule="evenodd" d="M24.096 116.798h3.26c.292 0 .49.079.44.176l-.552 1.056c-.053.101-.34.183-.64.183h-.521a.376.376 0 00-.332.193l-.734 1.352c-.058.107-.357.194-.664.194h-2.101c-.308 0-.508-.087-.445-.194l1.654-2.784c.057-.097.343-.176.635-.176zm.342-.59h5.897a.373.373 0 00.338-.218l.297-.643a.376.376 0 00-.338-.535h-5.828a.372.372 0 00-.324.189l-.365.643a.376.376 0 00.323.564z" fill="#9DC5F5"/><path fill-rule="evenodd" clip-rule="evenodd" d="M26.288 64.826h66.73c2.1 0 3.8 1.682 3.8 3.756v42.651c0 .922-.746 1.669-1.667 1.669H24.155a1.668 1.668 0 01-1.668-1.669V68.582c0-2.074 1.702-3.756 3.8-3.756z" fill="#404953"/><mask id="mask1_224_101" style="mask-type:alpha" maskUnits="userSpaceOnUse" x="-30" y="0" width="284" height="192"><path d="M-30 191.488h283.709V.381H-30v191.107z" fill="#fff"/></mask><g mask="url(#mask1_224_101)"><path fill-rule="evenodd" clip-rule="evenodd" d="M25.644 111.096h68.018v-42.53H25.644v42.53z" fill="#3397F5"/></g><mask id="mask2_224_101" style="mask-type:alpha" maskUnits="userSpaceOnUse" x="51" y="64" width="71" height="50"><path d="M51.277 64.372v49.185l47.865-2.287 3.545-4.541 7.733-.625v-3.712l-4.377-1.023V83.634l12.818.755 2.913-9.151-15.731-10.866H51.277z" fill="#fff"/></mask><g mask="url(#mask2_224_101)" fill-rule="evenodd" clip-rule="evenodd"><path d="M100.716 77.257h14.963v-2.336h-14.963v2.336z" fill="#14D997"/><path d="M85.666 77.257h11.505v-2.336H85.666v2.336z" fill="#2F6BC3"/><path d="M71.385 77.257h11.504v-2.336H71.385v2.336zm-14.282 0h11.505v-2.336H57.102v2.336z" fill="#9DC5F5"/><path d="M62.657 100.623h13.488v-2.336H62.657v2.336z" fill="#2F6BC3"/><path d="M78.525 100.623H90.03v-2.336H78.525v2.336z" fill="#9DC5F5"/><path d="M92.807 100.623h11.504v-2.336H92.807v2.336z" fill="#F9662E"/><path d="M107.088 100.623h11.505v-2.336h-11.505v2.336z" fill="#9DC5F5"/><path d="M89.237 81.93h31.104v-2.336H89.237v2.336z" fill="#14D997"/><path d="M71.385 81.93h14.678v-2.336H71.385v2.336z" fill="#2F6BC3"/><path d="M71.385 105.296H99.55v-2.336H71.385v2.336z" fill="#9DC5F5"/><path d="M99.55 86.604h19.043v-2.337H99.551v2.337z" fill="#2F6BC3"/><path d="M85.666 86.604h11.505v-2.337H85.666v2.337z" fill="#9DC5F5"/><path d="M67.02 86.604h15.87v-2.337H67.02v2.337z" fill="#F9662E"/><path d="M89.237 95.95h29.356v-2.337H89.237v2.337zm-12.299 0h9.125v-2.337h-9.125v2.337zm24.743 9.346h14.266v-2.336h-14.266v2.336z" fill="#9DC5F5"/></g><path fill-rule="evenodd" clip-rule="evenodd" d="M114.051 83.665a4.888 4.888 0 00-4.915 4.931l.039 4.317a6 6 0 005.83 5.943l28.895.82a6 6 0 006.166-6.229l-.52-13.444a6 6 0 00-6.049-5.768l-18.663.165a6 6 0 00-5.778 4.587l-.228.942a4.887 4.887 0 01-4.777 3.736z" fill="#F9662E"/><path fill-rule="evenodd" clip-rule="evenodd" d="M137.953 86.726c.046-4.23-3.401-7.696-7.7-7.742-4.298-.045-7.821 3.348-7.867 7.579-.046 4.23 3.402 7.697 7.701 7.742 4.299.045 7.82-3.348 7.866-7.579z" fill="#fff"/><path fill-rule="evenodd" clip-rule="evenodd" d="M134.448 86.69l-6.811-3.967-.084 7.789 6.895-3.822z" fill="#F9662E"/><path opacity=".25" fill-rule="evenodd" clip-rule="evenodd" d="M122.634 46.41a6 6 0 007.4 4.543l18.892-4.995a6 6 0 004.251-7.394l-5.768-20.942a6 6 0 00-6.673-4.34l-18.105 2.712a6 6 0 00-4.978 7.192l4.981 23.224z" fill="#fff"/><path fill-rule="evenodd" clip-rule="evenodd" d="M124.053 43.81a6 6 0 007.401 4.543l15.023-3.972a5.999 5.999 0 004.25-7.394l-4.664-16.937a6 6 0 00-6.674-4.341l-14.38 2.154a6 6 0 00-4.978 7.192l4.022 18.756z" fill="#2F6BC3"/><mask id="mask3_224_101" style="mask-type:alpha" maskUnits="userSpaceOnUse" x="120" y="15" width="31" height="34"><path d="M125.589 17.34a6 6 0 00-4.95 7.135l3.909 19.047a6 6 0 007.476 4.577l14.185-3.92a6 6 0 004.204-7.312l-4.545-17.249a6 6 0 00-6.73-4.399l-13.549 2.122z" fill="#fff"/></mask><g mask="url(#mask3_224_101)"><path fill-rule="evenodd" clip-rule="evenodd" d="M156.281 39.28c.604-4.432-3.417-7.36-6.852-4.496-3.285 2.74-6.397 5.369-10.857 5.338-5.178-.036-7.228-2.706-11.515-4.823-3.859-1.904-7.289 2.205-5.998 6.31l1.638 5.21a6 6 0 007.438 3.951l21.912-6.532a6.027 6.027 0 004.234-4.959z" fill="#3397F5"/></g><path fill-rule="evenodd" clip-rule="evenodd" d="M129.862 27.306a5.441 5.441 0 1110.803 1.3 5.44 5.44 0 11-10.803-1.3z" fill="#FFD840"/><path clip-rule="evenodd" d="M127.766 27.053a7.552 7.552 0 1114.996 1.804 7.553 7.553 0 01-8.399 6.6 7.556 7.556 0 01-6.597-8.404z" stroke="#FFD740" stroke-linejoin="round" stroke-dasharray="3 3"/><mask id="mask4_224_101" style="mask-type:alpha" maskUnits="userSpaceOnUse" x="-30" y="0" width="284" height="192"><path d="M-30 191.488h283.709V.381H-30v191.107z" fill="#fff"/></mask><g mask="url(#mask4_224_101)" fill-rule="evenodd" clip-rule="evenodd"><path d="M103.575 109.479h14.19v-2.369h-14.19v2.369zm26.686 35.159a6 6 0 01-7.767-4.064l-5.388-19.494a5.999 5.999 0 014.414-7.44l7.667-1.796a6 6 0 017.085 4.022l5.869 18.436a6 6 0 01-3.734 7.483l-8.146 2.853z" fill="#9DC5F5"/><path d="M131.631 128.732l-2.478-3.956-.033.007-.524 4.657 3.035-.708zm-1.822-7.155l7.11 10.699-2.674.624-1.494-2.404-4.38 1.022-.311 2.824-2.592.605 1.699-12.754 2.642-.616z" fill="#fff"/><path d="M47.154 64.314c1.698 3.963 5.66 9.059.566 10.191-5.093 1.133-.566-10.191-.566-10.191z" fill="#E8B452"/><path d="M82.996 138.146c2.319-2.318 11.733-4.852 12.75-6.377 1.158-1.74 0-1.74 0-1.74s1.158-1.159.579-2.319l-.58-1.159v-1.16c0-1.739 0-2.899-.58-3.479-.58-.58-1.738-1.159-1.738-1.159l-1.159 1.739.58.58s.58 1.159 0 2.319-1.739.58-1.739.58 1.555-1.07 2.898-2.899c.73-.996.75-2.662 1.159-3.478 1.159-2.32-.58-1.74-1.739 0-.375.563-1.038 1.757-1.739 2.318-2.897 2.319-5.876 4.033-6.953 5.218-1.257 1.384-2.147.222-.58-1.739 2.319-2.899 0-4.638 0-3.479 0 1.16-1.159 1.16-2.897 3.479-1.738 2.319-1.159 5.798-4.056 8.117" fill="#ECB855"/><path d="M67.93 165.977l15.066-27.83-5.794-4.639s-6.374 9.277-15.646 10.436c-4.77.597 6.375 22.033 6.375 22.033zM1.5 93c.5-1.5 15-5.5 12.424-18.99C14.48 66.832 37 81.185 37 81.185L28.35 95s-8.312-3.448-14.426-4" fill="#ECB855"/><path d="M41.496 46.762c7.922 9.06 7.086 24.59 3.961 33.971-2.83 8.493-2.83 8.493-9.62 7.36-5.61-.935-16.908-4.822-20.903-11.47-3.995-6.647-8.522-20.236-2.298-28.729 6.225-8.492 21.315-9.76 28.86-1.132z" fill="#ECB855"/><path d="M47.649 119.013c13.328 20.873 28.068 37.509 20.86 46.384-7.532 9.277-34.188-30.729-34.188-30.729l13.328-15.655z" fill="#F2CD88"/><path d="M16.598 64.314c-8.353-.961-4.527 14.721 3.395 12.456l-3.395-12.456z" fill="#ECB855"/><path d="M14.334 64.894c6.08-3.28 1.698 13.009 5.659 11.876 3.96-1.132 7.922-1.699 7.356-18.684-.566-16.986 11.317-3.398 19.24-5.096 7.922-1.699 13.58-7.36 10.751-10.191-2.829-2.831-5.093 1.698-5.093 1.698s5.093-7.36 1.698-9.625c-3.395-2.265-3.395 3.963-14.147 0-10.751-3.963-34.49-6.425-36.782 9.625-3.394 23.78 10.187 37.368 10.187 37.368l2.842-3.976s-8.413-9.38-1.711-12.995z" fill="#2E5078"/></g><mask id="mask5_224_101" style="mask-type:alpha" maskUnits="userSpaceOnUse" x="0" y="4" width="239" height="177"><path d="M115.91 8.52l.202-.31a246.22 246.22 0 01-3.098 1.574c-.735.345-1.463.701-2.18 1.076-26.295 12.827-55.028 21.52-55.028 21.52l.732.195C24.282 41.128.51 70.488.51 105.398c0 41.611 33.772 75.344 75.432 75.344 18.163 0 34.816-6.422 47.833-17.103l-.011.04c24.585-17.404 61.612-16.389 72.833-15.619a37.7 37.7 0 002.951.243c.253.026.392.042.392.042l.011-.031c.403.012.803.031 1.208.031 20.83 0 37.716-16.867 37.716-37.673 0-13.12-6.718-24.67-16.903-31.414-21.427-15.783-33.398-42.196-33.398-42.196l-.156.226c-8.964-19.39-28.59-32.851-51.376-32.851a56.424 56.424 0 00-21.132 4.082z" fill="#fff"/></mask><g mask="url(#mask5_224_101)"><path fill-rule="evenodd" clip-rule="evenodd" d="M-30.13 125.284s9.126-19.98 27.758-30.615c12.145-6.93 26.024-6.353 36.434 2.312 10.41 8.664 21.975 30.613 21.975 30.613l-5.205 6.355c-3.734 4.559-12.144 10.397-12.144 10.397l-5.174-7.022s-2.922 4.134-4.079 24.929c-1.156 20.794 6.361 29.459 6.361 29.459s-53.782 0-65.926-66.428z" fill="#2F6BC3"/></g><path fill-rule="evenodd" clip-rule="evenodd" d="M201.277 2.364c-24.005 1.1 0 35.769-18.55 40.721-5.998 1.602-6.998 8.472-2.918 11.48 2.309 1.702 3.791 4.334 4.251 7.18.804 4.967 2.131 10.513 9.579 10.506 12.481-.013 13.158-11.983 13.158-11.983l-2.262-18.862s5.202-39.43-3.258-39.042z" fill="#306BC4"/><path fill-rule="evenodd" clip-rule="evenodd" d="M231.282 17.772c3.433 13.915-6.719 23.376 3.273 34.669 7.632 8.624 3.936 20.584-8.046 20.584s-9.856-35.768-9.856-35.768l14.629-19.485z" fill="#4E97EE"/><path fill-rule="evenodd" clip-rule="evenodd" d="M132.768 77.545c-3.977-2.513-10.68-2.418-13.159-2.266-2.478.152-3.007-1.745-.12-2.003 2.127-.19 6.052-.446 7.969-.567.238-.015.277-.349.052-.424l-11.087-3.92c-2.115-.706-1.389-2.423 1.552-1.767 2.3.513 7.937 2.356 10.522 3.12.211.063.346-.221.164-.347-2.555-1.772-9.749-6.339-10.787-6.948-1.289-.758-.659-2.398 2.38-.947 2.427 1.159 8.394 4.256 10.48 5.47.116.068.232-.087.134-.18-1.667-1.578-5.812-5.463-7.18-6.372-1.728-1.149-1.431-2.898 1.581-1.172 3.012 1.727 11.683 8.453 13.486 10.852.9 1.197 2.307 7.192.647 8.719-1.666 1.532-6.634-1.248-6.634-1.248z" fill="#B99653"/><path fill-rule="evenodd" clip-rule="evenodd" d="M194.539 49.97c8.126 7.548 4.525 22.123 4.525 22.123s4.706-8.043 11.558-12.096c8.337-2.997 10.462 1.258 10.462 1.258s-6.949-9.559-2.291-24.408c4.657-14.849-24.254 13.123-24.254 13.123z" fill="#ECB855"/><path fill-rule="evenodd" clip-rule="evenodd" d="M135.985 67.425s.065-1.092.091-2.837c.057-3.787-.029-4.848.958-5.71 1.027-.895.903 3.655 3.868 8.682 3.091 5.24 2 4.69 2.886 6.98.123.32 23.556 23.558 29.365 29.267 4.009 3.939-8.183 10.874-8.183 10.874l-4.446-3.725s-17.687-26.527-21.621-29.3c-3.933-2.774-8.957-5.591-8.957-5.591s4.522 2.48 6.733 2.895c2.399.45 4.026-5.76-.694-11.535z" fill="#B18A40"/><path fill-rule="evenodd" clip-rule="evenodd" d="M146.549 78.974c1.865 3.294-4.722-6.508-7.297-11.75-1.718-3.497-1.981-5.1-2.371-6.49-.149-.527-.333-.587-.517-.07-.228.637-.254 1.656-.288 3.924a70.577 70.577 0 01-.091 2.837c.743 3.262-2.128 10.054 1.817 12.017 3.943 1.964 6.26-4.86 8.747-.468z" fill="#B18A40"/><path fill-rule="evenodd" clip-rule="evenodd" d="M140.425 77.628c2.477-2.076 2.356-4.34.84-7.578-2.476-5.29-3.34-10.462-4.11-10.415-1.089.067-1.023 1.166-1.079 4.953a70.6 70.6 0 01-.091 2.837c-.28 4.428-3.316 8.473-.428 11.052 0 0 1.841 1.687 4.868-.849z" fill="#B99653"/><path fill-rule="evenodd" clip-rule="evenodd" d="M190.614 13.041c-6.085 9.864-10.529 28.529-6.621 32.453 7.858 7.892 26.081 4.784 33.013-3.869 6.227-7.775 12.099-20.77 2.106-30.04-12.466-11.565-25.064-4.11-28.498 1.456z" fill="#ECB855"/><path fill-rule="evenodd" clip-rule="evenodd" d="M222.553 31.53c7.638 2.751 2.918 14.287-9.531 13.24l9.531-13.24z" fill="#ECB855"/><path fill-rule="evenodd" clip-rule="evenodd" d="M187.116 22.725c-6.478 4.122-6.888 5.724-3.569 8.64 2.766 2.43 3.569-8.64 3.569-8.64z" fill="#E8B452"/><path fill-rule="evenodd" clip-rule="evenodd" d="M198.549 94.812s-24.349 32.868-27.824 28.615l-14.344-14.179 10.525-12.234 5.456 4.952s14.766-19.78 19.195-29.737c3.173-7.132 6.992 22.583 6.992 22.583z" fill="#6EB2F8"/><path fill-rule="evenodd" clip-rule="evenodd" d="M200.072 65.011c-6.46 3.384-10.414 5.548-10.06 17.958.353 12.41 10.06-17.958 10.06-17.958z" fill="#6EB2F8"/><mask id="mask6_224_101" style="mask-type:alpha" maskUnits="userSpaceOnUse" x="0" y="4" width="239" height="177"><path d="M115.91 8.52l.202-.31a246.22 246.22 0 01-3.098 1.574c-.735.345-1.463.701-2.18 1.076-26.295 12.827-55.028 21.52-55.028 21.52l.732.195C24.282 41.128.51 70.488.51 105.398c0 41.611 33.772 75.344 75.432 75.344 18.163 0 34.816-6.422 47.833-17.103l-.011.04c24.585-17.404 61.612-16.389 72.833-15.619a37.7 37.7 0 002.951.243c.253.026.392.042.392.042l.011-.031c.403.012.803.032 1.208.031 20.062-.076 37.937-15.439 37.716-37.673-.303-30.688.044-69.546.044-69.546l-50.345-4.064S159.828 4.437 137.042 4.437a56.424 56.424 0 00-21.132 4.082z" fill="#fff"/></mask><g mask="url(#mask6_224_101)"><path fill-rule="evenodd" clip-rule="evenodd" d="M188.179 83.961c13.791-14.867 8.211-23.036 22.682-26.194 14.47-3.16 17.441 21.522 23.652 34.626 6.211 13.104 18.497 38.782 18.497 38.782l-11.101 9.642-16.275-25.781s-.794 18.864 3.534 29.06l-44.288 17.053s2.749-24.457.375-40.245c-2.375-15.787-9.478-23.572 2.924-36.943z" fill="#9DC5F5"/></g><mask id="mask7_224_101" style="mask-type:alpha" maskUnits="userSpaceOnUse" x="0" y="4" width="239" height="177"><path d="M115.91 8.52l.202-.31a246.22 246.22 0 01-3.098 1.574c-.735.345-1.463.701-2.18 1.076-26.295 12.827-55.028 21.52-55.028 21.52l.732.195C24.282 41.128.51 70.488.51 105.398c0 41.611 33.772 75.344 75.432 75.344 18.163 0 34.816-6.422 47.833-17.103l-.011.04c24.585-17.404 61.612-16.389 72.833-15.619a37.7 37.7 0 002.951.243c.253.026.392.042.392.042l.011-.031c.403.012.803.031 1.208.031 20.83 0 37.716-16.867 37.716-37.673 0-13.12-6.718-24.67-16.903-31.414-21.427-15.783-33.398-42.196-33.398-42.196l-.156.226c-8.964-19.39-28.59-32.851-51.376-32.851a56.424 56.424 0 00-21.132 4.082z" fill="#fff"/></mask><g mask="url(#mask7_224_101)"><path fill-rule="evenodd" clip-rule="evenodd" d="M225.619 115.488c-6.448-11.271-11.37-19.056-12.466-8.652-1.097 10.404 8.772 35.593 8.772 35.593s2.45.693 3.837 0c2.193-1.095 1.645-4.929 1.645-4.929s-1.991-10.229-1.788-22.012z" fill="#6EB2F8"/></g><path fill-rule="evenodd" clip-rule="evenodd" d="M199.777 65.248c-2.871 4.161-5.199 10.456-6.897 12.606-1.699 2.15 1.324.792 6.419-5.657 5.096-6.448 3.469-12.848 11.364-14.909 7.896-2.061-7.521-.88-7.521-.88l-3.365 8.84z" fill="#ECB855"/><mask id="mask8_224_101" style="mask-type:alpha" maskUnits="userSpaceOnUse" x="192" y="0" width="40" height="77"><path d="M192.017.382h39.574v75.844h-39.574V.382z" fill="#fff"/></mask><g mask="url(#mask8_224_101)"><path fill-rule="evenodd" clip-rule="evenodd" d="M199.732 60.28c1.157 1.677 1.993 3.551 1.853 5.592-.332 4.847.006 10.7 5.354 10.338 8.154-.55 3.805-19.825 8.308-33.946 5.24-16.436 11.396-7.358 11.396-7.358s12.404-16.232-2.067-28.275c-19.73-16.42-32.559 4.712-32.559 4.712 11.886-9.949 3.175 11.118 14.337 18.327 3.846 2.484 4.737 10.018-4.307 14.6-5.435 2.753-6.522 9.912-2.315 16.01z" fill="#4E97EE"/></g><mask id="mask9_224_101" style="mask-type:alpha" maskUnits="userSpaceOnUse" x="0" y="4" width="239" height="177"><path d="M115.91 8.52l.202-.31a246.22 246.22 0 01-3.098 1.574c-.735.345-1.463.701-2.18 1.076-26.295 12.827-55.028 21.52-55.028 21.52l.732.195C24.282 41.128.51 70.488.51 105.398c0 41.611 33.772 75.344 75.432 75.344 18.163 0 34.816-6.422 47.833-17.103l-.011.04c24.585-17.404 61.612-16.389 72.833-15.619a37.7 37.7 0 002.951.243c.253.026.392.042.392.042l.011-.031c.403.012.803.031 1.208.031 20.83 0 37.937-16.331 37.719-37.673-.138-13.12-6.721-24.67-16.906-31.414-21.427-15.783-33.398-42.196-33.398-42.196l-.156.226c-8.964-19.39-28.59-32.851-51.376-32.851a56.424 56.424 0 00-21.132 4.082z" fill="#fff"/></mask><g mask="url(#mask9_224_101)"><path fill-rule="evenodd" clip-rule="evenodd" d="M226.181 127.281c-7.447 6.253-22.867 19.599-29.779 18.854-11.393-1.228-10.513-1.689-16.22 2.922-2.724 2.201 19.918 2.67 29.382-.327 9.464-2.997 19.39-10.161 19.39-10.161l-2.773-11.288z" fill="#BD9C5D"/></g><mask id="mask10_224_101" style="mask-type:alpha" maskUnits="userSpaceOnUse" x="0" y="4" width="239" height="177"><path d="M116.112 8.21a246.22 246.22 0 01-3.098 1.574c-.735.345-1.463.701-2.18 1.076-26.295 12.827-55.028 21.52-55.028 21.52l.732.195C24.282 41.128.51 70.488.51 105.398c0 41.611 33.772 75.344 75.432 75.344 18.163 0 34.816-6.422 47.833-17.103l-.011.04c24.585-17.404 61.612-16.389 72.833-15.619a37.7 37.7 0 002.951.243c.253.026.392.042.392.042l.011-.031c.403.012.803.031 1.208.031 20.83 0 37.937-16.331 37.716-37.673-.135-13.12-6.718-24.67-16.903-31.414-21.427-15.783-33.398-42.196-33.398-42.196l-.156.226c-8.964-19.39-28.59-32.851-51.376-32.851a56.424 56.424 0 00-21.132 4.082l.202-.309z" fill="#fff"/></mask><g mask="url(#mask10_224_101)"><path fill-rule="evenodd" clip-rule="evenodd" d="M229.119 120.556c2.319 3.633-8.122 9.844-8.122 9.844l7.145 10.816L242.4 130.4l-13.281-9.844z" fill="#9DC5F5"/></g></g><defs><linearGradient id="paint0_linear_224_101" x1="41.894" y1="139.284" x2="154.975" y2="26.335" gradientUnits="userSpaceOnUse"><stop stop-color="#CFEDF9"/><stop offset="1" stop-color="#F2F9FD"/></linearGradient><clipPath id="clip0_224_101"><path fill="#fff" d="M0 0h239v181H0z"/></clipPath></defs></svg>