<svg width="262" height="180" viewBox="0 0 262 180" fill="none" xmlns="http://www.w3.org/2000/svg"><mask id="mask0_224_19" style="mask-type:alpha" maskUnits="userSpaceOnUse" x="0" y="0" width="262" height="180"><path d="M183.865.368c-21.459 0-40.882 8.667-54.971 22.677l.005-.043s-41.68 38.148-87.69 37.315a39.147 39.147 0 00-2.254-.072C17.44 60.245 0 77.653 0 99.127c0 21.182 16.976 38.398 38.089 38.86 18.43 2.996 29.728 12.018 35.104 17.537C83.786 170.336 101.134 180 120.76 180c14.156 0 27.13-5.031 37.243-13.392 10.49-10.789 21.074-24.495 34.23-26.474 40.512-2.764 69.541-30.95 69.541-62.005 0-42.946-34.88-77.76-77.908-77.76z" fill="#fff"/></mask><g mask="url(#mask0_224_19)"><path opacity=".15" fill-rule="evenodd" clip-rule="evenodd" d="M183.865.368c-21.459 0-40.882 8.667-54.971 22.677l.005-.043s-41.68 38.148-87.69 37.315a39.147 39.147 0 00-2.254-.072C17.44 60.245 0 77.653 0 99.127c0 21.182 16.976 38.398 38.089 38.86 18.43 2.996 29.728 12.018 35.104 17.537C83.786 170.336 101.134 180 120.76 180c14.156 0 27.13-5.031 37.243-13.392 10.49-10.789 21.074-24.495 34.23-26.474 40.512-2.764 69.541-30.95 69.541-62.005 0-42.946-34.88-77.76-77.908-77.76z" fill="url(#paint0_linear_224_19)"/></g><path fill-rule="evenodd" clip-rule="evenodd" d="M131.975 25.311c-1.397.39-45.77 34.53-45.77 34.53l-1.243 7.648 18.694.552 45.287-9.49 28.77-25.156-.414-6.289-10.085-1.256" fill="#174562"/><path fill-rule="evenodd" clip-rule="evenodd" d="M150.998 68.57L79.512 78.858l-3.134-13.66-5.58-1.82 68.768-7.144 11.353 3.243.079 9.093z" fill="#236793"/><path fill-rule="evenodd" clip-rule="evenodd" d="M199.942 30.78l-48.944 37.79-11.432-12.337 38.687-31.115 21.689 5.663z" fill="#2E89C4"/><path fill-rule="evenodd" clip-rule="evenodd" d="M191.233 21.323a14.677 14.677 0 00-10.657-4.72l-59.428-.569a14.413 14.413 0 00-10.347 4.223L71.277 58.701a7.71 7.71 0 00-.296 10.6l8.532 9.558 49.465-47.296 70.964-.782-8.709-9.458z" fill="#4E97EE"/><path fill-rule="evenodd" clip-rule="evenodd" d="M128.978 31.564l70.964-.783-8.71-9.458a14.674 14.674 0 00-10.656-4.72l-59.429-.57a14.42 14.42 0 00-10.346 4.224s7.187-8.285 18.177 11.306z" fill="#7CB2F2"/><path fill-rule="evenodd" clip-rule="evenodd" d="M200 29l-70.586.8L80 78l71.317-10.347L200 29zm-6.686 2.382L150.4 65.456l-63.746 9.247 43.681-42.605 62.979-.716z" fill="#4E97EE"/><path fill-rule="evenodd" clip-rule="evenodd" d="M152.35 69.926L81.195 80.228l18.771 16.215 17.25 7.195s-12.422.569 18.51-3.763l30.932-4.333-1.221-12.531" fill="#174562"/><path fill-rule="evenodd" clip-rule="evenodd" d="M197.548 81.38l-45.839-11.345 2.064 30.482 43.775-19.136z" fill="#236793"/><path fill-rule="evenodd" clip-rule="evenodd" d="M203.648 152.924l-75.592 15.722-6.396-77.076 77.695-11.433 4.293 72.787z" fill="#7CB2F2"/><path fill-rule="evenodd" clip-rule="evenodd" d="M121.66 91.57l6.396 77.077-40.392-19.779-7.6-69.774 41.596 12.475z" fill="#4E97EE"/><path fill-rule="evenodd" clip-rule="evenodd" d="M152.35 68.791L80.064 79.094l41.596 12.475 77.694-11.433-47.004-11.345zm-.11 2.308l35.204 8.496-65.615 9.656-31.231-9.366 61.642-8.786z" fill="#96C1F5"/><path fill-rule="evenodd" clip-rule="evenodd" d="M176.176 54.219a2.249 2.249 0 01-1.751 2.651 2.24 2.24 0 01-2.642-1.755 2.247 2.247 0 011.749-2.652 2.243 2.243 0 012.644 1.756zm-5.054-7.879a2.444 2.444 0 01-1.901 2.881 2.437 2.437 0 01-2.872-1.908 2.444 2.444 0 011.902-2.882 2.436 2.436 0 012.871 1.909zM48.994 23.044a2.444 2.444 0 01-1.902 2.881 2.444 2.444 0 01-.97-4.79 2.436 2.436 0 012.872 1.91z" fill="#fff"/><path fill-rule="evenodd" clip-rule="evenodd" d="M216.085 63.554c-.112-3.125-3.606-4.919-6.211-3.188l-3.981 2.645c-2.579 1.713-2.318 5.58.468 6.93l4.148 2.013c2.713 1.316 5.851-.73 5.743-3.743l-.167-4.657z" fill="#4E97EE"/><path opacity=".25" fill-rule="evenodd" clip-rule="evenodd" d="M100.001 126.993a6 6 0 01-7.424 4.573l-20.08-5.371a6 6 0 01-4.245-7.349l6.111-22.805a6 6 0 016.69-4.38l19.232 2.898a6 6 0 014.98 7.157l-5.264 25.277z" fill="#fff"/><path fill-rule="evenodd" clip-rule="evenodd" d="M98.524 124.245a6 6 0 01-7.425 4.573l-16.064-4.296a6 6 0 01-4.245-7.35l4.976-18.566a6 6 0 016.69-4.38l15.367 2.317a6 6 0 014.98 7.156l-4.28 20.546z" fill="#fff"/><mask id="mask1_224_19" style="mask-type:alpha" maskUnits="userSpaceOnUse" x="70" y="93" width="33" height="36"><path d="M70.849 116.635a6 6 0 004.215 7.299l15.667 4.307a6 6 0 007.47-4.594l4.24-20.921a6 6 0 00-4.962-7.12l-14.969-2.32a6 6 0 00-6.725 4.415l-4.936 18.934z" fill="#fff"/></mask><g mask="url(#mask1_224_19)"><path fill-rule="evenodd" clip-rule="evenodd" d="M64.66 118.237c-.611-4.432 3.446-7.369 6.888-4.512 3.637 3.018 7.003 6.03 11.907 5.985 5.655-.051 7.773-3.076 12.622-5.359 3.893-1.832 7.322 2.273 6.042 6.381l-1.982 6.365a6 6 0 01-7.435 3.968l-23.685-7.027a6 6 0 01-4.237-4.932l-.12-.869z" fill="#3397F5"/></g><path fill-rule="evenodd" clip-rule="evenodd" d="M91.162 106.121c-.388-3.095-3.267-5.298-6.432-4.921-3.165.379-5.417 3.196-5.03 6.291.387 3.096 3.266 5.298 6.43 4.92 3.166-.379 5.419-3.194 5.032-6.29z" fill="#FFD840"/><path clip-rule="evenodd" d="M93.385 105.855c-.537-4.297-4.534-7.354-8.927-6.83-4.393.525-7.518 4.435-6.983 8.731.538 4.298 4.534 7.356 8.928 6.83 4.394-.525 7.52-4.434 6.982-8.731z" stroke="#FFD740" stroke-width=".75" stroke-linejoin="round" stroke-dasharray="3 3"/><path fill-rule="evenodd" clip-rule="evenodd" d="M172.023 74.422a6 6 0 01-7.662-4.151l-5.534-20.675a6 6 0 014.536-7.418l8.782-1.886a6 6 0 016.99 4.089l6.053 19.517a6 6 0 01-3.864 7.48l-9.301 3.044z" fill="#B1D1F7"/><path fill-rule="evenodd" clip-rule="evenodd" d="M174.117 57.864l-2.563-4.125-.036.008-.622 4.806 3.221-.689zm-1.824-7.423l7.364 11.162-2.837.607-1.544-2.506-4.647.993-.371 2.916-2.749.587 1.983-13.16 2.801-.6z" fill="#4E97EE"/><mask id="mask2_224_19" style="mask-type:alpha" maskUnits="userSpaceOnUse" x="84" y="46" width="71" height="44"><path d="M84.144 78.38l37.86 11.304 31.445-4.534 1.253-15.842-40.269-23.29L84.144 78.38z" fill="#fff"/></mask><g mask="url(#mask2_224_19)"><path fill-rule="evenodd" clip-rule="evenodd" d="M103.972 69.275a6 6 0 001.035 8.353l23.536 18.652a6 6 0 008.606-1.21l8.422-11.767a6 6 0 00-1.32-8.323l-23.797-17.532a6 6 0 00-8.321 1.18l-8.161 10.647z" fill="#F9662E"/></g><mask id="mask3_224_19" style="mask-type:alpha" maskUnits="userSpaceOnUse" x="84" y="46" width="71" height="44"><path d="M84.144 78.38l37.86 11.304 31.445-4.534 1.253-15.842-40.269-23.29" fill="#fff"/></mask><g mask="url(#mask3_224_19)"><path fill-rule="evenodd" clip-rule="evenodd" d="M132.13 81.12c2.375-3.692 1.251-8.575-2.512-10.908-3.764-2.33-8.739-1.226-11.113 2.467-2.376 3.692-1.251 8.576 2.511 10.907 3.764 2.331 8.74 1.227 11.114-2.465z" fill="#fff"/></g><mask id="mask4_224_19" style="mask-type:alpha" maskUnits="userSpaceOnUse" x="84" y="46" width="71" height="44"><path d="M84.144 78.38l37.86 11.304 31.445-4.534 1.253-15.842-40.269-23.29L84.144 78.38z" fill="#fff"/></mask><g mask="url(#mask4_224_19)"><path fill-rule="evenodd" clip-rule="evenodd" d="M129.063 79.22l-3.813-7.116-4.373 6.799 8.186.316z" fill="#F9662E"/></g><path fill-rule="evenodd" clip-rule="evenodd" d="M95.39 66.327a2.424 2.424 0 01-1.903 2.858 2.435 2.435 0 01-2.871-1.892 2.423 2.423 0 011.901-2.857 2.436 2.436 0 012.873 1.891zm114.005 8.883a2.425 2.425 0 01-1.902 2.857 2.436 2.436 0 01-2.873-1.892 2.423 2.423 0 011.902-2.856 2.437 2.437 0 012.873 1.89zm-78.673-28.744a2.424 2.424 0 01-1.902 2.858 2.435 2.435 0 01-2.872-1.892 2.425 2.425 0 011.901-2.858 2.438 2.438 0 012.873 1.892zm21.133 1.694a2.423 2.423 0 01-1.903 2.858 2.437 2.437 0 01-2.872-1.891 2.425 2.425 0 011.902-2.858 2.436 2.436 0 012.873 1.891zM47.438 78.22a2.424 2.424 0 01-1.901 2.858 2.436 2.436 0 01-2.873-1.892 2.424 2.424 0 011.903-2.858 2.435 2.435 0 012.871 1.892zm184.347-9.469a2.425 2.425 0 01-1.902 2.858 2.435 2.435 0 01-2.872-1.893 2.424 2.424 0 011.902-2.857 2.438 2.438 0 012.872 1.892zm-121.368-27.41a2.424 2.424 0 01-1.902 2.858 2.436 2.436 0 01-2.872-1.893 2.425 2.425 0 011.901-2.857 2.436 2.436 0 012.873 1.892zm17.869-6.046a2.424 2.424 0 01-1.903 2.858 2.435 2.435 0 01-2.871-1.892 2.424 2.424 0 011.901-2.858 2.437 2.437 0 012.873 1.892zm63.067 2.425a2.424 2.424 0 01-1.901 2.857 2.437 2.437 0 01-2.873-1.893 2.425 2.425 0 011.902-2.857 2.435 2.435 0 012.872 1.892zM64.849 92.606a2.424 2.424 0 01-1.902 2.857 2.436 2.436 0 01-2.872-1.892 2.423 2.423 0 011.902-2.856 2.435 2.435 0 012.872 1.89zm9.191-11.648a2.424 2.424 0 01-1.901 2.857 2.436 2.436 0 01-2.873-1.892 2.424 2.424 0 011.902-2.856 2.436 2.436 0 012.873 1.89zM199.6 45.259a2.424 2.424 0 01-1.903 2.857 2.436 2.436 0 01-2.872-1.892 2.425 2.425 0 011.902-2.857 2.437 2.437 0 012.873 1.892zM55.858 63.307a2.424 2.424 0 01-1.902 2.858 2.435 2.435 0 01-2.871-1.892 2.423 2.423 0 011.9-2.857 2.436 2.436 0 012.873 1.891z" fill="#FAFCFF"/><path fill-rule="evenodd" clip-rule="evenodd" d="M171.617 110.813c-1.046-5.634-6.416-9.343-11.993-8.286-5.578 1.056-9.251 6.479-8.205 12.111.908 4.887 5.073 8.315 9.802 8.449l-3.441 19.558 17.957-3.402-10.224-16.968c4.36-1.856 7.011-6.576 6.104-11.462z" fill="#2E5078"/><path fill-rule="evenodd" clip-rule="evenodd" d="M175.737 139.243l-10.225-16.968c4.36-1.856 7.011-6.576 6.107-11.464-1.049-5.631-6.418-9.341-11.996-8.285-.731.138-1.426.361-2.088.641 3.599 1.062 6.503 4.036 7.242 8.011a10.384 10.384 0 01-6.022 11.409c.803.23 1.608.476 2.467.501l-.515 2.926 8.256 12.595-10.947 2.074-.235 1.96 17.956-3.4z" fill="#236793"/><path fill-rule="evenodd" clip-rule="evenodd" d="M152.428 111.022L182 110v10l-28.726-1.755s-1.03-.658-1.232-3.877c-.201-3.218.386-3.346.386-3.346z" fill="#FFD840"/><mask id="mask5_224_19" style="mask-type:alpha" maskUnits="userSpaceOnUse" x="152" y="110" width="30" height="10"><path d="M152.654 111.028s-.575.123-.378 3.217c.198 3.095 1.207 3.729 1.207 3.729l28.148 1.686v-9.615l-28.977.983z" fill="#fff"/></mask><g mask="url(#mask5_224_19)"><path fill-rule="evenodd" clip-rule="evenodd" d="M152.079 113.25l26.71.156 2.843 8.354-28.149-1.686s-1.009-.633-1.206-3.729l-.198-3.095z" fill="#ECB855"/></g><path fill-rule="evenodd" clip-rule="evenodd" d="M185.43 121.94c-4.304.486-8.253-2.126-8.818-5.835-.565-3.707 2.468-7.111 6.771-7.596" fill="#FFD840"/><path fill-rule="evenodd" clip-rule="evenodd" d="M185.43 121.94c-3.153.357-6.045-1.557-6.459-4.274-.414-2.716 1.807-5.208 4.961-5.564" fill="#ECB855"/><path fill-rule="evenodd" clip-rule="evenodd" d="M204.515 132.415c-4.196 1.522-10.067-4.607-13.113-13.692-3.046-9.084-2.114-17.682 2.082-19.204 4.197-1.523 10.068 4.607 13.114 13.691 3.045 9.084 2.113 17.683-2.083 19.205zm7.127-22.502c-4.456-13.29-13.728-22.008-20.709-19.475-6.984 2.533-9.032 15.36-4.577 28.649 4.457 13.29 13.73 22.009 20.712 19.475 6.983-2.533 9.032-15.361 4.574-28.649z" fill="#FFD840"/><path fill-rule="evenodd" clip-rule="evenodd" d="M202.515 134.415c-4.196 1.522-10.067-4.607-13.113-13.692-3.046-9.084-2.114-17.682 2.082-19.204 4.197-1.523 10.068 4.607 13.114 13.691 3.045 9.084 2.113 17.683-2.083 19.205zm7.127-22.502c-4.456-13.29-13.728-22.008-20.709-19.475-6.984 2.533-9.032 15.36-4.577 28.649 4.457 13.29 13.73 22.009 20.712 19.475 6.983-2.533 9.032-15.361 4.574-28.649z" fill="#ECB855"/><defs><linearGradient id="paint0_linear_224_19" x1="53.637" y1="127.185" x2="175.512" y2="5.539" gradientUnits="userSpaceOnUse"><stop stop-color="#CFEDF9"/><stop offset="1" stop-color="#F2F9FD"/></linearGradient></defs></svg>