<svg width="61" height="61" viewBox="0 0 61 61" fill="none" xmlns="http://www.w3.org/2000/svg">
<g clip-path="url(#clip0_2_35)">
<path d="M0 30.5C0 13.655 13.655 0 30.5 0C47.345 0 61 13.655 61 30.5C61 47.345 47.345 61 30.5 61C13.655 61 0 47.345 0 30.5Z" fill="#E7507D"/>
<path d="M32.1027 37.25L25.3527 44H44C44 40.2721 40.9779 37.25 37.25 37.25H32.1027Z" fill="white"/>
<path d="M28.8973 23.75L35.6473 17H17C17 20.7279 20.0221 23.75 23.75 23.75H28.8973Z" fill="white"/>
<path d="M43.0115 22.7615C44.3295 21.4435 44.3295 19.3065 43.0115 17.9885C41.6935 16.6705 39.5565 16.6705 38.2385 17.9885L17.9885 38.2385C16.6705 39.5565 16.6705 41.6935 17.9885 43.0115C19.3065 44.3295 21.4435 44.3295 22.7615 43.0115L43.0115 22.7615Z" fill="white"/>
</g>
<defs>
<clipPath id="clip0_2_35">
<rect width="61" height="61" fill="white"/>
</clipPath>
</defs>
</svg>
