<svg width="187" height="45" viewBox="0 0 187 45" fill="none" xmlns="http://www.w3.org/2000/svg"><path d="M24.046 24.244a8.466 8.466 0 01-1.276 4.532c-.822 1.379-2.054 2.479-3.696 3.3-1.614.821-3.579 1.232-5.896 1.232-3.491 0-6.366-.85-8.624-2.552-2.259-1.701-3.491-4.077-3.696-7.128h8.008c.117 1.173.528 2.097 1.232 2.772.733.675 1.657 1.012 2.772 1.012.968 0 1.73-.264 2.288-.792.557-.528.836-1.232.836-2.112 0-.792-.264-1.452-.792-1.98-.499-.528-1.13-.953-1.892-1.276-.763-.352-1.819-.763-3.168-1.232-1.966-.675-3.579-1.32-4.84-1.936-1.232-.645-2.303-1.584-3.212-2.816-.88-1.261-1.32-2.89-1.32-4.884 0-1.848.469-3.447 1.408-4.796.938-1.35 2.229-2.376 3.872-3.08 1.672-.733 3.578-1.1 5.72-1.1 3.461 0 6.204.821 8.228 2.464 2.053 1.643 3.212 3.901 3.476 6.776h-8.14c-.147-1.027-.528-1.833-1.144-2.42-.587-.616-1.394-.924-2.42-.924-.88 0-1.599.235-2.156.704-.528.47-.792 1.159-.792 2.068 0 .733.234 1.364.704 1.892.498.499 1.114.91 1.848 1.232.733.323 1.789.733 3.168 1.232 1.994.675 3.622 1.35 4.884 2.024 1.261.645 2.346 1.599 3.256 2.86.909 1.261 1.364 2.904 1.364 4.928zM37.533 8.14c1.878 0 3.491.425 4.84 1.276a7.672 7.672 0 012.992 3.476V8.448h7.48V33h-7.48v-4.444a7.672 7.672 0 01-2.992 3.476c-1.349.85-2.962 1.276-4.84 1.276-2.024 0-3.842-.499-5.456-1.496-1.584-1.027-2.845-2.493-3.784-4.4-.909-1.907-1.364-4.136-1.364-6.688 0-2.581.455-4.81 1.364-6.688.939-1.907 2.2-3.359 3.784-4.356 1.614-1.027 3.432-1.54 5.456-1.54zm2.42 6.6c-1.613 0-2.918.528-3.916 1.584-.968 1.056-1.452 2.523-1.452 4.4 0 1.877.484 3.344 1.452 4.4.998 1.056 2.303 1.584 3.916 1.584 1.584 0 2.875-.543 3.872-1.628 1.027-1.085 1.54-2.537 1.54-4.356 0-1.848-.513-3.3-1.54-4.356-.997-1.085-2.288-1.628-3.872-1.628zm27.401-6.6c1.877 0 3.49.425 4.84 1.276a7.671 7.671 0 012.992 3.476V8.448h7.48V33h-7.48v-4.444a7.671 7.671 0 01-2.992 3.476c-1.35.85-2.963 1.276-4.84 1.276-2.024 0-3.843-.499-5.456-1.496-1.584-1.027-2.846-2.493-3.784-4.4-.91-1.907-1.364-4.136-1.364-6.688 0-2.581.454-4.81 1.364-6.688.938-1.907 2.2-3.359 3.784-4.356 1.613-1.027 3.432-1.54 5.456-1.54zm2.42 6.6c-1.614 0-2.919.528-3.916 1.584-.968 1.056-1.452 2.523-1.452 4.4 0 1.877.484 3.344 1.452 4.4.997 1.056 2.302 1.584 3.916 1.584 1.584 0 2.874-.543 3.872-1.628 1.026-1.085 1.54-2.537 1.54-4.356 0-1.848-.514-3.3-1.54-4.356-.998-1.085-2.288-1.628-3.872-1.628zm27.004-6.6c3.11 0 5.588.777 7.436 2.332 1.877 1.555 3.051 3.608 3.52 6.16h-7.04c-.205-.997-.675-1.775-1.408-2.332-.704-.587-1.599-.88-2.684-.88-.85 0-1.496.19-1.936.572-.44.352-.66.865-.66 1.54 0 .763.396 1.335 1.188 1.716.821.381 2.097.763 3.828 1.144 1.877.44 3.417.895 4.62 1.364 1.203.44 2.244 1.173 3.124 2.2.88 1.027 1.32 2.405 1.32 4.136 0 1.408-.381 2.655-1.144 3.74-.763 1.085-1.863 1.936-3.3 2.552-1.437.616-3.139.924-5.104.924-3.315 0-5.97-.733-7.964-2.2-1.995-1.467-3.212-3.564-3.652-6.292h7.26c.117 1.056.557 1.863 1.32 2.42.792.557 1.804.836 3.036.836.85 0 1.496-.19 1.936-.572.44-.41.66-.939.66-1.584 0-.85-.411-1.452-1.232-1.804-.792-.381-2.097-.777-3.916-1.188-1.819-.381-3.315-.792-4.488-1.232a7.497 7.497 0 01-3.036-2.112c-.85-.997-1.276-2.347-1.276-4.048 0-2.2.836-3.975 2.508-5.324 1.672-1.379 4.033-2.068 7.084-2.068zm22.998-7.7V33h-7.524V.44h7.524zm28.515 19.624c0 .616-.073 1.29-.22 2.024h-17.028c.088 1.848.557 3.183 1.408 4.004.851.792 1.936 1.188 3.256 1.188 1.115 0 2.039-.279 2.772-.836a3.907 3.907 0 001.452-2.156h7.964a10.568 10.568 0 01-2.112 4.664c-1.085 1.35-2.464 2.42-4.136 3.212-1.672.763-3.535 1.144-5.588 1.144-2.405 0-4.547-.499-6.424-1.496-1.848-1.027-3.3-2.493-4.356-4.4-1.056-1.907-1.584-4.136-1.584-6.688 0-2.581.513-4.81 1.54-6.688 1.056-1.907 2.523-3.359 4.4-4.356 1.877-1.027 4.019-1.54 6.424-1.54 2.435 0 4.576.499 6.424 1.496 1.848.997 3.271 2.405 4.268 4.224 1.027 1.79 1.54 3.857 1.54 6.204zm-7.612-1.144c.029-1.613-.411-2.816-1.32-3.608-.88-.821-1.98-1.232-3.3-1.232-1.379 0-2.523.41-3.432 1.232-.909.821-1.423 2.024-1.54 3.608h9.592zm17.21-10.472l5.896 15.048 5.5-15.048h8.316l-15.312 36.256h-8.272l5.764-12.628-10.296-23.628h8.404zm28.679 17.028V33h-7.788v-7.524h7.788z" fill="#110F1A"/></svg>