<svg width="140" height="48" viewBox="0 0 140 48" fill="none" xmlns="http://www.w3.org/2000/svg"><path d="M73.256 14.53c0 1.345-1.1 2.505-2.505 2.505a2.478 2.478 0 01-2.505-2.504c0-1.406 1.039-2.505 2.505-2.505 1.466.122 2.505 1.222 2.505 2.505zm-10.203 5.01v.611s-1.16-1.527-3.665-1.527c-4.155 0-7.393 3.177-7.393 7.514 0 4.338 3.177 7.515 7.393 7.515 2.565 0 3.665-1.589 3.665-1.589v.672c0 .306.244.55.55.55h3.055V18.99h-3.055c-.306 0-.55.306-.55.55zm0 9.164c-.55.855-1.71 1.589-3.055 1.589-2.443 0-4.276-1.528-4.276-4.094 0-2.566 1.894-4.093 4.276-4.093 1.345 0 2.566.733 3.055 1.588v5.01zm5.926-9.714h3.666v14.296h-3.666V18.99zm54.556-.366c-2.504 0-3.665 1.527-3.665 1.527v-8.003h-3.666v21.2h3.055c.305 0 .55-.245.55-.55v-.673s1.161 1.589 3.665 1.589c4.154 0 7.393-3.177 7.393-7.515.06-4.398-3.177-7.575-7.332-7.575zm-.61 11.608c-1.406 0-2.505-.734-3.055-1.589v-5.132c.55-.733 1.772-1.588 3.055-1.588 2.443 0 4.276 1.527 4.276 4.093s-1.833 4.216-4.276 4.216zm-8.615-5.377v8.553h-3.665v-8.125c0-2.383-.733-3.3-2.811-3.3-1.099 0-2.26.55-2.993 1.406v9.958h-3.666V18.99h2.872c.305 0 .55.245.55.55v.611c1.038-1.1 2.504-1.527 3.909-1.527 1.589 0 2.933.427 3.972 1.344 1.344 1.1 1.832 2.444 1.832 4.887zm-21.993-6.231c-2.505 0-3.666 1.527-3.666 1.527v-8.003h-3.665v21.2h3.054c.306 0 .55-.245.55-.55v-.673s1.16 1.589 3.666 1.589c4.154 0 7.392-3.177 7.392-7.515.061-4.398-3.177-7.575-7.331-7.575zm-.611 11.608c-1.405 0-2.505-.734-3.055-1.589v-5.132c.55-.733 1.772-1.588 3.055-1.588 2.444 0 4.276 1.527 4.276 4.093s-1.832 4.216-4.276 4.216zm-9.897-11.608c1.1 0 1.65.183 1.65.183v3.36s-3.055-1.038-4.95 1.16v10.02h-3.665V18.99H77.9c.305 0 .55.245.55.55v.611c.733-.794 2.26-1.527 3.36-1.527zm-37.94 13.44c-.182-.427-.366-.977-.549-1.344-.305-.672-.61-1.344-.855-1.955l-.062-.06c-2.626-5.682-5.437-11.486-8.43-17.23l-.123-.243c-.305-.55-.61-1.161-.916-1.772-.366-.672-.733-1.405-1.344-2.077C30.368 5.855 28.596 5 26.764 5c-1.894 0-3.605.855-4.888 2.26a10.71 10.71 0 00-1.405 2.14c-.305.61-.61 1.222-.916 1.771l-.122.245c-2.933 5.68-5.804 11.484-8.431 17.227l-.061.061c-.245.611-.55 1.283-.856 1.955-.183.428-.366.856-.55 1.344-.488 1.405-.672 2.75-.427 4.093.427 2.872 2.321 5.255 4.948 6.293.978.428 2.016.611 3.055.611.305 0 .672-.061.977-.061 1.283-.122 2.566-.55 3.788-1.283 1.589-.855 3.055-2.138 4.704-3.971 1.65 1.833 3.177 3.054 4.705 3.97 1.283.734 2.565 1.162 3.787 1.284.306.061.672.061.978.061 1.039 0 2.138-.183 3.055-.61 2.688-1.04 4.52-3.483 4.948-6.294.428-1.344.306-2.627-.183-4.032zM26.704 34.02c-2.078-2.566-3.36-5.01-3.85-7.086-.183-.856-.244-1.65-.121-2.322.06-.611.305-1.16.61-1.588.734-1.04 1.956-1.65 3.36-1.65 1.406 0 2.689.61 3.36 1.65.306.427.55.977.612 1.588.122.672.06 1.466-.122 2.322-.49 2.015-1.833 4.46-3.85 7.086zm15.15 1.772c-.244 1.955-1.588 3.666-3.482 4.46-.916.366-1.893.489-2.87.366-.978-.122-1.895-.427-2.872-.977-1.344-.733-2.75-1.955-4.338-3.666 2.505-3.054 4.032-5.926 4.582-8.43.244-1.161.306-2.261.183-3.239a5.323 5.323 0 00-1.038-2.566c-1.161-1.71-3.177-2.688-5.377-2.688-2.199 0-4.215 1.04-5.376 2.689-.55.733-.855 1.65-1.038 2.565-.122.978-.122 2.078.183 3.238.55 2.505 2.138 5.377 4.582 8.431-1.588 1.772-2.994 2.933-4.338 3.666a8.016 8.016 0 01-2.871.977c-1.039.123-2.016-.06-2.871-.366-1.894-.733-3.177-2.505-3.483-4.46a5.81 5.81 0 01.367-2.994c.122-.366.305-.733.489-1.221a25.9 25.9 0 01.855-1.894l.061-.061c2.627-5.682 5.437-11.486 8.37-17.106l.122-.245c.305-.55.611-1.16.916-1.772.306-.61.672-1.16 1.039-1.65a4.008 4.008 0 013.055-1.404c1.16 0 2.26.488 3.054 1.405.428.489.733 1.038 1.039 1.65.305.55.61 1.16.916 1.771l.122.245a624.45 624.45 0 018.31 17.106v.06c.305.612.549 1.284.854 1.895.184.427.367.855.49 1.221.427 1.04.55 2.017.366 2.994z" fill="#fff"/></svg>