<svg width="140" height="48" viewBox="0 0 140 48" fill="none" xmlns="http://www.w3.org/2000/svg"><path d="M95.337 24.12c-2.438-.338-3.386-.948-3.319-1.896.136-1.693 2.236-1.896 3.522-1.829 2.507.203 3.048 2.37 3.048 2.642l2.439-.203c-.136-1.558-1.422-4.606-5.08-4.877-2.032-.136-3.793.27-4.945 1.287-.88.745-1.625 1.896-1.76 3.048-.272 3.725 3.386 4.267 5.689 4.606 2.913.406 3.59.812 3.522 1.896 0 .542-.339 1.084-.745 1.422-.61.475-1.829.678-3.048.542-2.777-.27-2.98-2.032-2.98-2.37l-2.439.067c0 1.49 1.016 4.403 5.148 4.877 2.235.271 4.064-.406 5.012-1.084 1.084-.812 1.694-2.167 1.761-3.454.204-3.86-3.522-4.335-5.825-4.673zm13.954 6.639c3.657 0 3.386-4.132 3.386-4.132v-8.264h2.845v8.467c0 1.22-.136 6.435-6.164 6.435h-.203c-6.029 0-6.163-5.148-6.163-6.435v-8.467h2.844v8.196c.068 0-.203 4.2 3.455 4.2zm25.467-2.303c-.813 1.422-2.439 2.235-4.199 2.235-2.439 0-4.403-1.558-4.741-3.996h11.852v-1.152c0-4.606-3.115-7.586-7.247-7.586-4.131 0-7.45 2.912-7.45 7.586s3.319 7.654 7.45 7.654c2.574 0 5.012-1.084 6.367-3.251l-2.032-1.49zm-4.267-7.857c2.37 0 4.064 1.49 4.47 3.928h-9.077c.34-2.506 2.168-3.928 4.607-3.928zm-49.987-2.575c-2.032 0-4.132.949-5.08 2.574v-2.303h-2.845V39.97h2.845v-9.212c.948 1.694 3.048 2.506 5.08 2.506 3.996 0 7.315-2.912 7.315-7.586 0-4.606-3.319-7.654-7.315-7.654zm-.271 12.599c-2.37 0-4.877-1.694-4.877-4.81 0-3.115 2.439-5.147 5.012-5.147 2.642 0 4.742 1.964 4.742 4.877-.068 2.98-2.303 5.08-4.877 5.08zm40.64-20.252h-2.846v22.555h2.846V10.371zm-56.422 7.518h-.203s-2.438 0-4.741.948l.27.745.543 1.558c.812-.339 2.167-.745 3.928-.813h.203c3.116 0 3.184 2.845 3.184 2.845v.745l-4.877-.068c-.339 0-2.303 0-3.725 1.355-.339.338-.61.677-.813 1.084-.271.61-.474 1.287-.474 2.032 0 .948.27 1.828.677 2.573.203.34.474.678.745.949.948.88 2.303 1.422 3.793 1.422h.339c1.693-.068 3.251-.745 4.267-2.37v2.031h2.506v-9.211c.068-2.37-1.422-5.825-5.622-5.825zM63.232 30.96c-.88.068-2.912-.406-2.912-2.641 0-.61.541-2.032 2.303-2.032h4.876c.068 2.709-1.558 4.538-4.267 4.673zm-13.614-.54c-4.538 0-7.993-3.658-7.993-8.196s3.522-8.263 7.993-8.263c2.167 0 4.064.88 5.486 2.235l1.693-2.303c-1.828-1.693-4.402-2.71-7.18-2.71-6.095 0-10.904 4.945-10.904 11.041s4.809 11.04 10.905 11.04c2.506 0 4.741-.812 6.502-2.1l-.948-2.64c-1.558 1.083-3.658 1.896-5.554 1.896zm-47.617-.069h3.523v-2.167h4.47v2.167h3.454V13.554H2.001V30.35zM19.544 8.813a.926.926 0 00-.948.948c0 .542.406.948.948.948a.926.926 0 00.948-.948c.068-.474-.406-.948-.948-.948zm0 4.403a.926.926 0 00-.948.948c0 .542.406.948.948.948a.926.926 0 00.948-.948c.068-.474-.406-.948-.948-.948zm0 4.47a.926.926 0 00-.948.948c0 .542.406.948.948.948a.926.926 0 00.948-.948c.068-.542-.406-.948-.948-.948zm4.538-8.873a.926.926 0 00-.948.948c0 .542.406.948.948.948a.926.926 0 00.949-.948c0-.474-.407-.948-.949-.948zm0 4.403a.926.926 0 00-.948.948c0 .542.406.948.948.948a.926.926 0 00.949-.948c0-.474-.407-.948-.949-.948zm0 4.47a.926.926 0 00-.948.948c0 .542.406.948.948.948a.926.926 0 00.949-.948.926.926 0 00-.949-.948zm4.403-8.873a.926.926 0 00-.948.948c0 .542.406.948.948.948a.926.926 0 00.948-.948c0-.474-.406-.948-.948-.948zm0 4.403a.926.926 0 00-.948.948c0 .542.406.948.948.948a.926.926 0 00.948-.948c0-.474-.406-.948-.948-.948zm0 4.47a.926.926 0 00-.948.948c0 .542.406.948.948.948a.926.926 0 00.948-.948.926.926 0 00-.948-.948z" fill="#8B8A99"/><path d="M7.894 24.527c-3.183-.068-5.825 2.438-5.893 5.554-.067 3.116 2.439 5.757 5.622 5.893 3.184.067 5.757-2.439 5.893-5.622 0-3.116-2.506-5.758-5.622-5.825zm1.761 7.789h-3.86v-3.86h3.86v3.86z" fill="#8B8A99"/><path d="M7.894 24.527c-3.183-.068-5.825 2.438-5.893 5.554-.067 3.116 2.439 5.757 5.622 5.893 3.184.067 5.757-2.439 5.893-5.622 0-3.116-2.506-5.758-5.622-5.825zm1.761 7.789h-3.86v-3.86h3.86v3.86z" fill="#fff" fill-opacity=".2"/><path d="M7.759 19.515A5.757 5.757 0 107.759 8a5.757 5.757 0 000 11.515z" fill="#fff"/><path d="M18.122 23.443V35.23h11.785V23.443H18.122zm9.415 8.535H20.56v-1.49h6.977v1.49zm0-3.861H20.56v-1.49h6.977v1.49z" fill="#8B8A99"/></svg>