<svg width="140" height="48" viewBox="0 0 140 48" fill="none" xmlns="http://www.w3.org/2000/svg"><path d="M20.97 8.695c0 1.45-1.244 2.695-2.696 2.695-1.45 0-2.694-1.244-2.694-2.695C15.58 7.244 16.823 6 18.274 6c1.451 0 2.695 1.244 2.695 2.695zM18.273 13.6a2.802 2.802 0 00-2.833 2.833 2.802 2.802 0 002.833 2.833 2.802 2.802 0 002.834-2.833c0-1.659-1.244-2.833-2.834-2.833zm0 7.531a2.92 2.92 0 00-2.902 2.902 2.92 2.92 0 002.902 2.903 2.92 2.92 0 002.903-2.902c.069-1.59-1.313-2.902-2.903-2.902zm0 7.67a2.802 2.802 0 00-2.833 2.833 2.802 2.802 0 002.833 2.833 2.802 2.802 0 002.834-2.833c0-1.52-1.244-2.833-2.834-2.833zm0 7.808c-1.45 0-2.694 1.244-2.694 2.695 0 1.451 1.243 2.695 2.694 2.695 1.451 0 2.695-1.244 2.695-2.695a2.698 2.698 0 00-2.695-2.695zm7.463-23.355c-1.727 0-3.178 1.451-3.178 3.179 0 1.727 1.45 3.178 3.178 3.178s3.179-1.45 3.179-3.178-1.451-3.179-3.179-3.179zm0 7.532a3.317 3.317 0 10.001 6.635 3.317 3.317 0 000-6.635zm0 7.67c-1.727 0-3.178 1.45-3.178 3.178s1.45 3.179 3.178 3.179 3.179-1.451 3.179-3.179c0-1.727-1.451-3.178-3.179-3.178zm7.67-8.085c-1.935 0-3.662 1.59-3.662 3.663 0 1.934 1.589 3.662 3.662 3.662s3.662-1.59 3.662-3.662c-.138-2.073-1.727-3.663-3.662-3.663zm-22.664-6.426c-1.313 0-2.419 1.106-2.419 2.419s1.106 2.418 2.419 2.418 2.418-1.105 2.418-2.418a2.403 2.403 0 00-2.418-2.419zm0 7.532c-1.451 0-2.557 1.105-2.557 2.556 0 1.452 1.106 2.557 2.557 2.557 1.45 0 2.556-1.105 2.556-2.556 0-1.452-1.105-2.557-2.556-2.557zm0 7.67c-1.313 0-2.419 1.105-2.419 2.418 0 1.313 1.106 2.419 2.419 2.419s2.418-1.106 2.418-2.419a2.403 2.403 0 00-2.418-2.418zM3.21 21.892A2.183 2.183 0 001 24.104c0 1.243.967 2.21 2.211 2.21a2.183 2.183 0 002.211-2.21 2.183 2.183 0 00-2.21-2.212zm61.36-2.556c-.276 0-.483.276-.483.484v19.14c0 .276.276.483.483.483h2.28c.277 0 .484-.276.484-.483V19.82c0-.277-.276-.484-.484-.484h-2.28zm1.244-8.084a2.183 2.183 0 00-2.21 2.211c0 1.244.967 2.211 2.21 2.211a2.183 2.183 0 002.212-2.21c0-1.245-1.037-2.212-2.212-2.212zm47.816 8.084c-.276 0-.484.276-.484.484v19.14c0 .276.277.483.484.483h2.281c.276 0 .483-.276.483-.483V19.82c0-.277-.277-.484-.483-.484h-2.281zm1.106-8.084a2.183 2.183 0 00-2.212 2.211c0 1.244.967 2.211 2.212 2.211 1.243 0 2.21-.967 2.21-2.21a2.182 2.182 0 00-2.21-2.212zm23.147 26.326a.447.447 0 00.139-.346v-.138s0-.138-.139-.138c0 0-.138-.139-.276-.139h-.898v1.728h.276v-.622h.345l.484.622h.277l-.622-.76c.276.069.414-.07.414-.207zm-.829.138v-.622h.484c.138 0 .276 0 .345.138.139 0 .139.138.139.276 0 .139 0 .277-.139.277-.138 0-.276.138-.345.138h-.484v-.207z" fill="#8B8A99"/><path d="M137.399 36.127c-.828 0-1.589.76-1.589 1.59 0 .828.761 1.588 1.589 1.588.829 0 1.59-.76 1.59-1.589 0-.898-.691-1.589-1.59-1.589zm0 3.04c-.828 0-1.451-.622-1.451-1.45 0-.83.623-1.452 1.451-1.452.829 0 1.451.622 1.451 1.451 0 .83-.69 1.451-1.451 1.451zM83.572 22.445c.277 0 .484-.276.484-.483v-2.28c0-.277-.276-.484-.484-.484h-4.906v-7.325c0-.276-.276-.483-.483-.483h-2.28c-.277 0-.484.276-.484.483v7.325H73c-.276 0-.484.276-.484.483v2.28c0 .277.277.484.484.484h2.419v11.056c0 3.386 2.28 5.597 5.597 5.597h2.418c.276 0 .484-.277.484-.484v-2.28c0-.277-.277-.484-.484-.484h-2.073c-1.59 0-2.695-1.105-2.695-2.833v-10.64l4.906.068zm48.507 0c.276 0 .484-.276.484-.483v-2.28c0-.277-.277-.484-.484-.484h-4.906v-7.325c0-.276-.277-.483-.483-.483h-2.281c-.276 0-.484.276-.484.483v7.325h-2.418c-.276 0-.484.276-.484.483v2.28c0 .277.277.484.484.484h2.418v11.056c0 3.386 2.281 5.597 5.597 5.597h2.419c.276 0 .483-.277.483-.484v-2.28c0-.277-.276-.484-.483-.484h-2.211c-1.589 0-2.695-1.105-2.695-2.833v-10.64l5.044.068zm-82.019 0v16.307c0 .276.276.484.483.484h2.28c.277 0 .484-.277.484-.484V22.445h5.39c.276 0 .484-.276.484-.484v-2.28c0-.276-.277-.484-.484-.484h-5.39v-4.284c0-1.727 1.244-2.902 2.695-2.902h2.695c.276 0 .484-.276.484-.483v-2.28c0-.277-.277-.484-.484-.484H56.14c-3.385 0-6.08 2.833-6.08 6.08v4.353h-2.42c-.276 0-.483.277-.483.484v2.28c0 .277.276.484.483.484h2.419zm55.831-.829c-1.796-1.934-4.353-3.04-7.048-3.04-2.557 0-5.113 1.106-6.703 2.695V9.11c0-.277-.276-.484-.483-.484h-2.28c-.277 0-.484.276-.484.484v20.107c0 7.463 4.975 10.71 9.881 10.71 4.836 0 9.881-3.316 9.881-10.71 0-2.971-.968-5.666-2.764-7.6zm-7.117 15.202c-4.906 0-6.703-3.87-6.703-7.532 0-4.491 2.695-7.462 6.703-7.462 4.007 0 6.703 3.04 6.703 7.462-.07 3.663-1.797 7.532-6.703 7.532z" fill="#8B8A99"/></svg>