<svg width="140" height="48" viewBox="0 0 140 48" fill="none" xmlns="http://www.w3.org/2000/svg"><path d="M84.25 16.503c-2.146 0-3.832.46-5.518 1.38 0-4.906 0-9.35.154-10.883L68.614 8.839v.92l1.073.153c1.379.306 1.84 1.072 2.144 2.912.31 3.68.154 23.301 0 26.521 2.76.614 5.673 1.074 8.587 1.074 8.124 0 13.03-5.06 13.03-13.031 0-6.285-3.986-10.885-9.198-10.885zm-3.526 22.228c-.614 0-1.381 0-1.84-.152-.154-2.146-.306-11.191-.154-19.162.92-.307 1.532-.46 2.3-.46 3.375 0 5.214 3.985 5.214 8.89 0 6.133-2.3 10.884-5.52 10.884zM29.98 7.613H3v1.379l1.533.153c1.992.306 2.76 1.532 3.065 4.445.461 5.519.307 15.484 0 20.235-.306 2.913-1.072 4.293-3.065 4.444L3 38.578v1.226h17.323v-1.226l-1.84-.309c-1.992-.152-2.759-1.531-3.065-4.444-.154-1.994-.307-5.214-.307-9.199l3.679.154c2.3 0 3.372 1.84 3.832 4.445h1.38V18.344h-1.38c-.461 2.606-1.532 4.445-3.832 4.445l-3.679.154c0-5.213.153-10.118.308-13.03h5.364c4.14 0 6.287 2.605 7.819 7.205l1.533-.46-.154-9.045z" fill="#8B8A99"/><path d="M38.72 16.198c7.665 0 11.497 5.212 11.497 12.11 0 6.592-4.292 12.112-11.958 12.112-7.665 0-11.497-5.213-11.497-12.112 0-6.592 4.292-12.11 11.957-12.11zm-.461 1.533c-3.373 0-4.293 4.599-4.293 10.577 0 5.825 1.533 10.577 4.6 10.577 3.523 0 4.445-4.599 4.445-10.577 0-5.825-1.532-10.577-4.752-10.577zm57.18 10.731c0-6.285 3.986-12.264 11.804-12.264 6.437 0 9.505 4.753 9.505 11.037H102.49c-.154 5.672 2.606 9.812 8.125 9.812 2.453 0 3.68-.612 5.214-1.686l.611.766c-1.533 2.146-4.905 4.293-9.197 4.293-6.899 0-11.804-4.906-11.804-11.958zm7.051-2.912l7.206-.154c0-3.066-.461-7.665-3.066-7.665-2.606 0-3.987 4.292-4.14 7.819zm32.502-8.125c-1.839-.768-4.291-1.227-7.051-1.227-5.67 0-9.198 3.372-9.198 7.358 0 3.986 2.604 5.672 6.288 6.899 3.83 1.378 4.904 2.452 4.904 4.292 0 1.84-1.379 3.525-3.833 3.525-2.911 0-5.059-1.686-6.745-6.285l-1.073.308.154 6.744c1.839.766 5.211 1.38 8.125 1.38 5.978 0 9.812-3.067 9.812-7.818 0-3.22-1.687-5.059-5.673-6.593-4.293-1.685-5.825-2.758-5.825-4.752 0-1.993 1.382-3.373 3.221-3.373 2.758 0 4.598 1.687 5.979 5.826l1.073-.306-.158-5.978zm-64.847-.614c-2.605-1.531-7.205-.766-9.657 4.753l.152-5.365-10.27 1.992v.92l1.073.153c1.381.154 1.993.92 2.147 2.914.306 3.679.153 10.118 0 13.337-.154 1.838-.766 2.758-2.147 2.912l-1.073.154v1.226h14.257V38.58l-1.84-.154c-1.532-.154-1.993-1.074-2.147-2.912-.306-2.913-.306-8.738-.152-12.418.766-1.073 4.139-1.992 7.204 0l2.453-6.286z" fill="#8B8A99"/></svg>