<svg width="140" height="48" viewBox="0 0 140 48" fill="none" xmlns="http://www.w3.org/2000/svg"><path d="M3 11.316h4.699v10.405h9.867V11.316h4.7v25.575h-4.7V26.218H7.7v10.673H3V11.316zm34.167 17.252a3.896 3.896 0 01-3.893 3.893 3.896 3.896 0 01-3.894-3.893V17.559h-4.43v11.009c0 4.564 3.76 8.323 8.324 8.323s8.323-3.759 8.323-8.323V17.559h-4.43v11.009zm16.848-10.942c-2.215 0-3.759.671-5.235 2.081v-8.39h-4.43v15.64c0 5.84 4.228 9.867 8.994 9.867 5.303 0 9.935-4.094 9.935-9.599 0-5.37-4.296-9.599-9.264-9.599zm.135 15.104c-3.02 0-5.37-2.551-5.37-5.505 0-2.953 2.282-5.504 5.37-5.504 2.55 0 4.9 2.55 4.9 5.504-.067 3.02-2.35 5.505-4.9 5.505zm16.647-13.963c0-2.215 1.477-2.953 3.155-2.953 1.342 0 3.088 1.007 4.229 2.215l2.886-3.423c-1.477-1.947-4.43-3.29-6.847-3.29-4.833 0-8.323 2.82-8.323 7.451 0 8.66 10.673 5.907 10.673 10.74 0 1.477-1.477 2.82-3.155 2.82-2.618 0-3.49-1.276-4.7-2.618l-3.221 3.356c2.08 2.55 4.632 3.826 7.72 3.826 4.564 0 8.323-2.819 8.323-7.316-.134-9.6-10.74-6.646-10.74-10.808zm22.353-1.342c-4.766 0-8.995 4.027-8.995 9.867V43h4.43v-8.458c1.477 1.477 3.02 2.08 5.236 2.08 4.967 0 9.263-4.161 9.263-9.598 0-5.504-4.631-9.6-9.934-9.6zm.805 15.103c-3.02 0-5.37-2.55-5.37-5.504 0-2.954 2.282-5.504 5.37-5.504 2.551 0 4.9 2.55 4.9 5.504 0 2.953-2.349 5.504-4.9 5.504zm42.021.202c-2.618 0-3.357-1.142-3.357-2.887v-7.72h4.095V18.23h-4.162v-5.168l-4.497 2.014v15.707c0 4.027 2.752 6.041 6.578 6.041.537 0 1.343-.067 1.813-.134l1.074-4.028c-.47.068-1.074.068-1.544.068z" fill="#8B8A99"/><path d="M124.16 22.392a10.04 10.04 0 00-3.558-3.557 9.741 9.741 0 00-3.625-1.276v-4.698c1.343-.537 2.148-1.813 2.148-3.222a3.538 3.538 0 00-3.557-3.558c-1.947 0-3.558 1.61-3.558 3.558 0 1.41.738 2.685 2.081 3.222v4.698a9.121 9.121 0 00-3.155 1.007c-2.014-1.544-8.726-6.578-12.62-9.599.067-.335.135-.671.135-1.007 0-2.148-1.746-3.96-3.96-3.96a3.925 3.925 0 00-3.961 3.96c0 2.148 1.745 3.96 3.96 3.96.739 0 1.41-.2 2.014-.603l.805.604 11.278 8.122a8.785 8.785 0 00-1.612 1.88c-.872 1.41-1.476 3.02-1.476 4.698v.336c0 1.208.201 2.35.604 3.423.336.94.873 1.813 1.477 2.551l-3.759 3.76a3.15 3.15 0 00-3.222.67c-.605.538-.873 1.343-.873 2.148 0 .806.336 1.544.873 2.148.537.605 1.342.873 2.148.873.805 0 1.611-.336 2.148-.873.604-.537.872-1.342.872-2.148 0-.335-.067-.604-.134-.94l3.893-3.893c.537.336 1.074.672 1.746.94a9.831 9.831 0 004.027.873h.269c1.611 0 3.155-.403 4.631-1.141 1.544-.806 2.685-1.947 3.625-3.424.873-1.476 1.41-3.02 1.41-4.833v-.067c.201-1.61-.202-3.222-1.074-4.632zm-4.699 8.123c-1.074 1.14-2.282 1.88-3.625 1.88h-.201c-.806 0-1.544-.202-2.283-.605-.872-.403-1.476-1.074-2.013-1.812a4.219 4.219 0 01-.806-2.484v-.269c0-.872.134-1.678.604-2.483.47-.873 1.074-1.544 1.88-2.014a4.625 4.625 0 012.618-.805h.067a5.79 5.79 0 012.416.537c.806.402 1.41 1.006 1.947 1.745.47.738.738 1.544.873 2.416v.537a6.07 6.07 0 01-1.477 3.357z" fill="#8B8A99"/></svg>