<svg width="140" height="48" viewBox="0 0 140 48" fill="none" xmlns="http://www.w3.org/2000/svg"><path d="M23.68 30.138V7.713c0-1.327-.977-2.305-2.305-2.305-1.327 0-2.375.978-2.375 2.305v22.495a4.68 4.68 0 004.68 4.68c1.328 0 2.306-.977 2.306-2.305 0-1.397-1.048-2.445-2.305-2.445zm22.286-16.347c-1.117 0-1.956.768-2.166 1.886-1.606-1.117-3.492-1.886-5.588-1.886-2.865 0-5.38 1.188-7.126 3.144-1.816 1.886-2.864 4.54-2.864 7.405 0 2.864 1.048 5.449 2.864 7.405 1.816 1.886 4.261 3.074 7.126 3.074 2.095 0 3.982-.699 5.588-1.816.28.978 1.118 1.816 2.166 1.816 1.188 0 2.236-.978 2.236-2.236V16.027c0-1.258-1.048-2.236-2.236-2.236zm-3.912 14.88c-.978 1.048-2.445 1.677-3.912 1.677-1.537 0-2.934-.559-3.912-1.677-.978-1.117-1.607-2.585-1.607-4.331 0-1.747.559-3.284 1.607-4.331.978-1.118 2.375-1.747 3.912-1.747 1.467 0 2.934.559 3.912 1.747.978 1.047 1.677 2.584 1.677 4.33 0 1.747-.63 3.284-1.677 4.332zm25.918-14.88c-1.257 0-2.165.978-2.165 2.235v9.92c0 2.446-1.957 4.262-4.332 4.262s-4.4-1.886-4.4-4.261v-9.92c0-1.258-.91-2.236-2.236-2.236-1.118 0-2.166.978-2.166 2.235v9.92c0 4.821 3.982 8.873 8.802 8.873 1.398 0 2.795-.35 3.982-.978-.698 2.166-2.794 3.772-5.24 3.842-.837 0-1.676-.21-2.444-.559-.978-.559-2.445-.07-3.004.908-.49 1.188-.07 2.516 1.117 3.005 1.258.628 2.795 1.047 4.332 1.047 5.589 0 10.06-4.4 10.06-10.06V16.027c-.07-1.257-1.118-2.235-2.306-2.235z" fill="#fff"/><path fill-rule="evenodd" clip-rule="evenodd" d="M121.138 24.405l-.002-.205.001-.19c.02-1.898.152-14.606-4.123-18.882-4.401-4.47-19.072-4.122-19.072-4.122S83.342.657 78.87 5.128c-4.271 4.205-4.143 16.89-4.123 18.867l.002.205-.002.19c-.02 1.899-.152 14.606 4.123 18.882 4.401 4.47 19.072 4.122 19.072 4.122s14.601.349 19.072-4.122c4.271-4.205 4.143-16.89 4.124-18.867zm-12.926.913c0-3.214 2.934-6.986 6.148-6.986 1.257 0 2.305-.978 2.235-2.236a2.326 2.326 0 00-2.305-2.305h-.489c-2.166 0-4.192.908-5.589 2.445v-.14a2.326 2.326 0 00-2.306-2.305 2.326 2.326 0 00-2.305 2.305v16.418a2.326 2.326 0 002.305 2.305 2.326 2.326 0 002.306-2.306v-7.195zm-13.413-9.64c.21-1.119 1.047-1.887 2.165-1.887 1.258 0 2.236.978 2.236 2.235v16.557c0 1.258-1.048 2.236-2.236 2.236-1.048 0-1.886-.838-2.165-1.816-1.607 1.117-3.493 1.816-5.59 1.816-2.864 0-5.309-1.188-7.125-3.074-1.816-1.956-2.864-4.54-2.864-7.405 0-2.864 1.048-5.52 2.864-7.405 1.746-1.956 4.261-3.144 7.126-3.144 2.096 0 3.982.768 5.589 1.886zm-5.59 14.67c1.468 0 2.935-.629 3.913-1.677.978-1.048 1.607-2.585 1.677-4.331 0-1.747-.699-3.284-1.677-4.331-.978-1.188-2.445-1.747-3.912-1.747-1.537 0-2.934.629-3.912 1.747-1.048 1.047-1.607 2.584-1.607 4.33 0 1.747.629 3.215 1.607 4.332.978 1.118 2.375 1.677 3.912 1.677z" fill="#fff"/></svg>