<svg width="140" height="48" viewBox="0 0 140 48" fill="none" xmlns="http://www.w3.org/2000/svg"><path d="M134.111 32.066c2.892 0 4.889-1.997 4.889-4.752 0-1.377-.413-2.685-1.102-3.58-.758-.965-1.859-1.515-3.168-1.515-1.721 0-3.374 1.308-4.957 4.062l-.138.207-.069-.207c-.413-1.17-.757-2.134-.964-2.685-.138-.413-.207-.551-.207-.62-.069-.275-.344-.482-.688-.482a1.11 1.11 0 00-.62.207c-.207.137-.344.275-.344.482-1.584 4.958-2.893 7.368-3.995 7.368a.527.527 0 01-.344-.138c-.275-.344-.206-1.102-.137-2.135.068-.757.137-1.652.137-2.547-.069-1.79-1.033-2.893-2.616-2.893-1.998 0-3.306 2.135-3.926 3.375l-.206.344-.069-.413c-.138-1.584-.689-3.443-2.341-3.443-1.929 0-3.443 2.272-4.339 4.2l-.206.482v-.55c.137-2.549.206-4.063.275-4.477.069-.413 0-.688-.138-.895-.137-.138-.344-.206-.757-.206-.62.068-.965.413-1.446 1.652-.758 2.066-2.755 6.955-4.407 6.955-.344 0-.551-.137-.758-.344-.688-.758-.413-2.823 0-5.716v-.206c.207-1.377-.138-1.653-.895-1.79h-.207c-.62 0-.895.55-1.446 2.134-.964 2.823-2.272 5.716-3.718 5.716h-.138c-.757-.138-.757-1.309-.757-2.755 0-.826 0-1.721-.07-2.479-.206-1.446-1.101-2.341-2.272-2.41-2.341 0-3.856 2.961-4.614 4.752l-.137.413-.07-.413c-.137-1.171-.206-2.273-.275-3.444v-.069c4.339-5.44 6.267-9.434 6.336-12.808C93.207 8.308 92.243 7 90.52 7c-1.24 0-4.132 1.033-5.165 10.536-.206 1.79-.275 3.58-.275 5.371-1.997 2.892-6.267 7.85-10.399 7.85-3.787 0-6.748-3.03-6.748-8.4 0-7.162 5.096-11.57 8.883-11.57.827 0 1.515.207 2.066.689.551.482.827 1.102.827 1.79 0 .964-.345 1.515-.62 1.997l-.207.414c-.069.137-.137.344-.069.482.07.206.344.275.689.275.895 0 2.272-1.308 2.272-3.305 0-2.066-1.721-4.2-4.889-4.2-4.751 0-11.087 5.164-11.087 13.634 0 5.922 3.719 10.054 8.815 10.054 3.58 0 7.161-2.548 10.26-6.886l.207-.276v.344c.069 1.584.207 2.824.275 3.719.069.55.069 1.033.069 1.24 0 .482.069.895.275 1.101.207.207.483.345.896.345.688 0 .826-.483 1.102-1.653l.069-.344c.344-1.447 1.652-6.13 3.58-6.13.345 0 .552.07.758.276.413.482.344 1.377.344 2.48 0 .688-.069 1.377 0 2.065.207 1.79.964 2.686 2.41 2.755 1.447 0 3.03-1.584 3.857-3.03l.137-.276.069.345c.138.757.827 3.374 2.893 3.374 1.927 0 3.512-1.997 5.301-6.129l.207-.55v.619c-.069 1.584-.138 3.443-.138 4.958 0 1.17.138 1.584.62 1.584h.138c.482 0 .827-.276 1.033-.895 1.377-4.683 2.479-6.886 3.649-6.886 1.102 0 1.24 2.065 1.309 5.715v.276c0 1.239.069 1.859.895 1.859.62 0 .758-.482 1.033-1.653.069-.206.138-.482.207-.757 1.101-3.788 1.997-5.303 3.098-5.303.965 0 1.034.964 1.034 1.309.068.688-.001 1.446-.138 2.134-.069.689-.138 1.309-.138 1.997.069 1.446.896 2.273 2.273 2.342 1.859 0 3.443-2.135 4.889-6.336l.068-.275.138.275c.276.689.62 1.584.895 2.617v.138c-1.377 3.099-2.41 6.542-2.41 8.401 0 2.41 1.102 3.994 2.824 4.063.964 0 3.098-.345 3.167-3.856 0-1.447-.344-3.444-1.032-5.992l-.069-.275.275.138c1.171.137 2.204.482 3.168.482zM87.009 20.222c.07-.896.138-1.722.207-2.548.688-5.165 2.065-8.815 3.443-8.815.62 0 .963.482.963 1.446 0 2.342-1.514 5.716-4.406 9.985l-.207.345v-.413zm42.901 18.661c-.206.276-.482.413-.895.413-.413 0-.758-.137-.964-.413-.62-.826-.413-2.754.551-6.266l.413-1.24.138-.344.068.344c1.171 3.994 1.447 6.542.689 7.506zm.413-10.398l-.069-.207v-.068c1.309-2.755 2.893-4.339 4.201-4.339 1.515 0 2.548 1.378 2.548 3.306 0 1.308-.551 1.997-1.033 2.41-.551.482-1.24.688-1.997.688-1.79.07-2.961-.895-3.65-1.79zm-84.976 3.099c2.066-.138 3.719-2.961 4.27-4.132l.138-.344.068.344c.276 1.653 1.24 4.476 4.063 4.545 1.24 0 2.617-.758 4.063-2.204l.138-.137.069.137c.964 1.584 2.203 2.48 3.58 2.342 1.998-.138 3.237-1.515 3.306-2.48 0-.275-.069-.481-.207-.62-.206-.206-.413-.206-.62-.068l-.068.069c-.482.482-1.309 1.308-2.273 1.308-1.17.07-1.997-.62-2.548-2.066v-.068l.07-.07c3.167-4.2 5.44-10.535 5.233-14.805-.07-1.997-.689-4.338-2.824-4.338H61.6c-.827.069-1.584.413-2.204 1.17-1.997 2.273-3.03 7.782-2.685 14.049.068 1.308.275 2.547.688 3.65v.068l-.069.069c-1.17 1.377-2.341 2.135-3.305 2.135-2.273 0-2.204-3.788-1.997-6.955.069-.689.069-1.102-.138-1.378-.138-.206-.413-.275-.757-.275h-.07c-.825 0-.963.138-1.376 1.377-.827 2.48-2.548 6.61-4.27 6.61-.482 0-.826-.137-1.102-.481-.826-1.033-.206-3.65.276-5.785.069-.344.206-.757.275-1.101.138-.482.07-.895-.069-1.102-.206-.207-.55-.344-.964-.275-.757.068-1.17.344-1.446 1.721l-.069.276v.068c-.344-.482-.964-1.033-2.066-1.033h-.344c-1.24.07-2.617.965-3.65 2.204-1.17 1.515-1.79 3.374-1.583 5.302 0 .07 0 .207.069.276v.069l-.07.069c-.688.757-1.445 1.17-2.134 1.17-1.102 0-1.722-.826-1.722-2.203 0-2.342 1.584-9.297 1.584-11.845 0-2.685-1.17-4.132-3.305-4.2-3.03 0-5.44 3.443-7.713 10.536l-.62 2.066-.344 1.101.069-1.102c.207-2.41.344-4.751.413-7.161.138-3.443-.344-5.647-1.446-6.749-.55-.62-1.308-.895-2.341-.895-3.719 0-5.51 6.267-6.818 10.743-.413 1.308-1.17 4.338-1.652 6.404l.275-.482c.207-2.617.895-9.09.827-12.602-.07-3.787-1.309-5.509-4.063-5.509-1.515 0-2.48.757-3.1 1.377C1.552 11.27 1 12.715 1 13.955c0 .758.482 1.446.826 1.446.207 0 .345-.344.414-.482.895-2.823 1.997-4.2 3.374-4.2.62 0 1.033.206 1.377.55 1.102 1.171.895 4.408.55 10.33-.068 1.79-.206 3.994-.343 6.404 0 .413-.07.826-.07 1.24-.137 1.721-.206 3.03.414 3.098.826.138 1.377-.206 1.653-1.033.413-1.24 1.308-4.613 3.098-10.742 1.722-5.853 3.03-8.057 4.683-8.057 1.928 0 2.066 3.305 1.722 10.26-.07 1.447-.207 3.168-.276 4.959v.757c-.069 1.515-.138 2.686.276 3.168a.782.782 0 00.55.206c.827 0 1.102-.757 1.515-1.928.07-.207.138-.413.207-.689 2.823-7.85 4.958-14.667 7.782-14.667.826 0 1.515.688 1.515 2.066 0 3.099-1.515 9.09-1.515 12.12 0 1.101.344 2.065.895 2.754a3.225 3.225 0 002.479 1.102c.964 0 1.928-.482 2.96-1.377l.07-.07.069.07c.688.895 1.721 1.377 2.892 1.239 1.79-.138 3.236-1.721 3.787-3.168l.138-.275.138.275c.413 1.102 1.308 2.48 3.167 2.273zM61.53 11.063c.207 0 .413.069.55.275.69.964.69 4.408-.481 8.333-.689 2.272-1.584 4.338-2.686 6.128l-.206.276-.07-.345a20.014 20.014 0 01-.206-2.754c-.206-5.922 1.584-11.844 3.099-11.913zM42.042 24.904c-.62 2.48-1.79 5.44-3.925 5.647h-.207c-.895 0-1.377-.551-1.446-1.722-.138-1.446.482-3.099 1.584-4.27.688-.757 1.446-1.17 2.135-1.17.964.07 1.583.758 1.859 1.515zm9.847-9.09c-.757 0-1.446.62-1.446 1.378 0 .757.62 1.377 1.377 1.377v.138-.138c.758 0 1.378-.62 1.447-1.377.068-.758-.551-1.378-1.378-1.378zm49.374 0c-.757 0-1.445.62-1.445 1.378a1.38 1.38 0 001.377 1.377v.138-.138c.757 0 1.445-.62 1.445-1.377.069-.758-.55-1.378-1.377-1.378z" fill="#fff"/></svg>